<?xml version="1.0" encoding="utf-8"?>
<!-- Generator: Adobe Illustrator 24.3.0, SVG Export Plug-In . SVG Version: 6.00 Build 0)  -->
<svg version="1.1" id="Layer_1" xmlns="http://www.w3.org/2000/svg" xmlns:xlink="http://www.w3.org/1999/xlink" x="0px" y="0px"
	 viewBox="0 0 1000 800" style="enable-background:new 0 0 1000 800;" xml:space="preserve">
<style type="text/css">
	.st0{fill:#0D0208;}
	.st1{font-family:'EdwardianScriptITC';}
	.st2{font-size:300px;}
	.st3{letter-spacing:15;}
	.st4{font-family:'ErasITC-Light';}
	.st5{font-size:200px;}
	.st6{fill:#E81C8C;}
	.st7{fill:#FEFEFE;}
	.st8{fill:#020202;}
	.st9{fill:#E61D8B;}
	.st10{fill:#E02B8B;}
	.st11{fill:#E14297;}
	.st12{fill:#E9DAE6;}
	.st13{fill:#353535;}
	.st14{fill:#F2C8E9;}
	.st15{fill:#272727;}
	.st16{fill:#E0D5E1;}
	.st17{fill:#3D3D3D;}
	.st18{fill:#1C1C1C;}
	.st19{fill:#FCFCFC;}
	.st20{fill:#E9E9E9;}
	.st21{fill:#C9C9C9;}
	.st22{fill:#1B1B1B;}
	.st23{fill:#383838;}
	.st24{fill:#4C4C4C;}
	.st25{fill:#2C2C2C;}
	.st26{fill:#A32664;}
	.st27{fill:#DE3A86;}
	.st28{fill:#8F335D;}
	.st29{fill:#DA3686;}
	.st30{fill:#C02473;}
	.st31{fill:#FFFFFF;}
</style>
<text transform="matrix(1 0 0 1 -4.1229 234.1406)"><tspan x="0" y="0" class="st0 st1 st2 st3">N</tspan><tspan x="276.33" y="0" class="st0 st4 st5">astas</tspan><tspan x="674.57" y="0" class="st6 st4 st5">i</tspan><tspan x="711.88" y="0" class="st0 st4 st5">a</tspan></text>
<text transform="matrix(1 0 0 1 108.1736 446.9554)"><tspan x="0" y="0" class="st0 st1 st2 st3">N</tspan><tspan x="276.33" y="0" class="st0 st4 st5">a</tspan><tspan x="376.04" y="0" class="st6 st4 st5">i</tspan><tspan x="413.34" y="0" class="st0 st4 st5">ls</tspan></text>
<g>
	<g>
		<ellipse class="st7" cx="636.91" cy="59.72" rx="88.8" ry="73.39"/>
		<path class="st8" d="M622.69,22.79c4.7,1.82,9.48,3.47,14.1,5.5c7.7,3.39,11.67,9.14,7.52,18.35c-0.59,1.32-0.51,2.94-2.16,4.21
			c-4.3-2.54-8.74-5.15-13.18-7.77c-2.51-0.39-4.69-1.75-6.82-2.46c-2.51,0.03-3.6,1.48-4.42,3.26c-0.34,3.17,2.35,4.14,4.16,5.75
			c3.87,3.45,8.9,5.55,11.81,10.12c-5.55,8.4-18,10.13-24.74,3.18c-9.93-10.24-19.7-20.64-29.41-31.08
			c-4.42-4.75-4.42-9.34-0.49-15.24c0.49-0.39,1.05-0.52,1.66-0.38c9.51,6.23,18.42,13.34,27.98,19.51
			c1.84,1.19,3.44,3.32,6.15,2.38c0.73-0.43,1.44-0.88,2.16-1.32c3.66-2.1,7.12-4.47,10.7-6.96c-2.02-2.69-6.27-2.39-7.01-6.06
			C621.04,22.8,621.61,22.27,622.69,22.79z"/>
		<path class="st9" d="M627.45,44.37c11.51,7.65,22.93,15.44,34.58,22.85c3.6,2.29,5.97,5.89,9.7,7.9c1.12,1.98,2.25,3.97-1.19,4.83
			c-6.27-4.63-14.15-6.27-20.3-11.26c-4.72-3.83-10.05-6.89-15.12-10.3c-6.51-2.53-11.53-7.3-17.05-11.31
			c-1.27-0.92-1.85-2.23-1.19-3.84c1.2-1.35,2.24-2.91,4.38-3.25C623.6,40.96,626.1,41.83,627.45,44.37z"/>
		<path class="st10" d="M689.51,84.82c2.15,1.09,2.9,2.79,2.65,5.19c-0.21,2.08-0.04,4.21-0.04,6.34c1.04,2.27,3.19,3.94,3.72,7.13
			c-0.36,2.69-1.02,5.7-4.84,6.47c-3.76-0.7-4.56-3.5-5.09-6.27c0.07-3.02,2.64-5.1,2.16-8.53c-1.4-3.18-4.35-5.55-7.35-7.87
			c-1.35-2.03,0.08-2.64,1.63-3.18C684.8,83.63,686.96,86.2,689.51,84.82z"/>
		<path class="st11" d="M683.17,85.05c-1.57-0.07-2.55,0.49-2.45,2.24c-3.74-1.96-7.22-4.29-10.17-7.34
			c2.14-1.18,0.96-3.18,1.19-4.83c2.52,1.23,5.03,2.45,7.55,3.68c0.48,0.75,0.11,1.24-0.49,1.65c0.02,0-0.56,0.15-0.56,0.15
			s0.58,0.12,0.6,0.11C680.86,81.59,683.39,81.96,683.17,85.05z"/>
		<path class="st12" d="M617.69,43.4c-0.42,2.09,1.21,2.81,2.47,3.88c4.74,4.04,10.44,6.79,14.97,11.11
			c-0.7,0.21-1.21,0.64-1.43,1.36c-6-3.27-10.97-7.98-16.53-11.86c-1.69-1.18-2.65-2.67-0.93-4.61
			C616.76,42.83,617.24,42.89,617.69,43.4z"/>
		<path class="st13" d="M580.72,16.73c-0.55-0.04-1.11-0.08-1.66-0.13c2.41-3.78,5.83-5.86,10.34-6.08
			c1.23,0.85,2.65,0.33,3.97,0.52c0.53,0.15,1.06,0.26,1.6,0.36c0.68,0.21,1.36,0.43,2.04,0.64c0.51,0.24,1.02,0.48,1.53,0.72
			c0.37-0.11,0.67-0.02,0.93,0.26c0.34,1.06-0.3,1.55-1.12,1.94c-0.84,0.24-1.68,0.23-2.52,0.05c-0.81-0.17-1.62-0.37-2.44-0.5
			c-1.67-0.15-3.34-0.32-5,0.11c-1.63,0.52-1.06,2.09-1.53,3.17C584.38,19.91,582.76,17.12,580.72,16.73z"/>
		<path class="st14" d="M676.8,80c0.9-0.25,2.16,0.25,2.48-1.2c2.29,1,4.76,1.67,6.43,3.73l0.01,0.01c0.65-0.04,1.09,0.22,1.25,0.88
			c0.37,0.24,0.42,1.39,1.22,0.43c0.72-0.05,1.17,0.26,1.32,0.98c-0.16,0.79-0.32,1.57-0.46,2.29c-2.62,0.65-3.94-1.54-5.88-2.06
			c-2.1-1.71-4.2-3.41-6.3-5.12L676.8,80z"/>
		<path class="st15" d="M622.69,22.79c-0.54,0.44-1.07,0.87-1.61,1.31c-6.42,0.88-11.04-2.62-15.57-6.35
			c0.17-1.15,0.61-1.87,1.93-1.25C612.71,18.17,617.89,20.03,622.69,22.79z"/>
		<path class="st16" d="M617.69,43.4c-0.48-0.04-0.96-0.08-1.45-0.12c0.89-2.47,2.82-3.89,5.29-5.14c2.55,1.45,5.32,2.69,7.45,4.95
			c-0.51,0.43-1.02,0.86-1.52,1.29c-2.24-0.49-3.78-2.23-5.74-3.22C619.75,40.81,619.11,42.8,617.69,43.4z"/>
		<path class="st17" d="M607.45,16.5c-0.53,0.4-1.06,0.81-1.59,1.21c-3.55,0.96-6.27-0.08-8.04-3.36c0.74-0.2,1.36-0.56,1.64-1.33
			C602.17,14.06,605.08,14.67,607.45,16.5z"/>
		<path class="st18" d="M593,11.57c-1.24-0.23-2.75,0.47-3.61-1.05c1.24-0.27,2.48-0.29,3.7,0.13c0.32,0.24,0.41,0.45,0.28,0.64
			C593.24,11.48,593.12,11.57,593,11.57z"/>
		<path class="st17" d="M593,11.57c0.04-0.3,0.07-0.61,0.09-0.92c0.79-0.18,1.37,0.19,1.87,0.74C594.3,11.46,593.65,11.52,593,11.57
			z"/>
		<path class="st17" d="M598.53,12.76c-0.67,0.1-1.21-0.08-1.53-0.72C597.51,12.28,598.02,12.52,598.53,12.76z"/>
		<path class="st10" d="M688.19,83.84c0.03,0.56-0.22,0.8-0.78,0.71c-0.15-0.38-0.29-0.76-0.44-1.14
			C687.38,83.56,687.79,83.7,688.19,83.84z"/>
		<path class="st19" d="M597.82,14.36c2.68,1.12,5.36,2.24,8.04,3.36c5.09,2.1,9.91,4.84,15.23,6.39c3.18,1.54,6.37,3.09,9.96,4.83
			c-4.18,3.84-9.09,6.2-13.58,9.14c-1.64-0.5-3.48-0.42-4.87-1.65c-4.37-2.87-8.7-5.8-13.1-8.62c-1.17-0.82-2.2-1.8-3.33-2.68
			c-2.86-2.26-6.27-3.78-8.88-6.39c-0.13-0.25-0.26-0.5-0.39-0.76c0.24-1.8-2.27-1.65-2.29-3.37c2.77-2.67,6.12-2.33,9.55-1.62
			c0.46,0.31,0.95,0.54,1.48,0.7C596.36,13.91,597.09,14.13,597.82,14.36z"/>
		<path class="st20" d="M580.72,16.73c2.57-2.1,3.84,2.21,6.18,1.25l-0.09-0.11c2.76,2.24,5.64,4.32,8.8,5.98
			c1.07,0.88,2.07,1.84,3.06,2.82c4.77,2.91,9.39,6.05,13.91,9.35c1.46,0.94,2.88,1.91,3.21,3.8c-0.89,1.13-1.94,1.55-3.22,0.63
			c-10.51-7.52-21.01-15.04-31.5-22.59C580.81,17.68,580.83,17.12,580.72,16.73z"/>
		<path class="st21" d="M611.73,57.07c3.99,2.34,7.01,4.11,10.15,5.96C616.83,65.7,614.4,64.47,611.73,57.07z"/>
		<path class="st22" d="M615.78,39.82c-1.18-1.04-2.35-2.08-3.53-3.13c-0.16-1.02-0.08-1.74,1.22-1.04
			c1.33,0.81,2.66,1.62,3.99,2.43C616.91,38.66,616.34,39.24,615.78,39.82z"/>
		<path class="st7" d="M676.87,79.93c-0.2-0.18-0.41-0.36-0.36-0.32c-0.04-0.05,0.13,0.17,0.29,0.39L676.87,79.93z"/>
		<path class="st17" d="M595.64,13.69c-0.49-0.23-0.98-0.47-1.48-0.7C594.8,12.91,595.32,13.09,595.64,13.69z"/>
		<path class="st10" d="M685.73,82.54c-0.08,0.53-0.14,1.09-0.89,0.52c0.3-0.18,0.59-0.35,0.87-0.52
			C685.71,82.53,685.73,82.54,685.73,82.54z"/>
		<path class="st23" d="M613.47,35.65c-0.41,0.35-0.81,0.69-1.22,1.04c-4.86-3.02-9.59-6.22-13.98-9.9
			c0.62-0.42,1.26-0.47,1.93-0.14C605,29.12,609.32,32.26,613.47,35.65z"/>
		<path class="st24" d="M595,24.36c-3.07-1.74-6.62-2.87-8.19-6.49c4.13,0.95,7,3.91,10.15,6.4C596.33,24.75,595.67,24.78,595,24.36
			z"/>
		<path class="st25" d="M595,24.36c0.65-0.03,1.31-0.06,1.96-0.09c1.31,0.49,2.45,1.2,3.25,2.38c-0.64,0.05-1.29,0.09-1.93,0.14
			C596.93,26.32,595.86,25.49,595,24.36z"/>
	</g>
</g>
<g>
	<g>
		<path class="st26" d="M506.4,302.42c0.92,2.06,1.84,4.13,2.77,6.19c-2.16,1.45-0.69,3.11,0.13,4.19
			c2.68,3.51,0.39,7.21,0.62,10.78c0.04,0.61-1.44,1.62-2.39,1.93c-1.03,0.34-2.26,0.09-3.41,0.09c0-0.33,0-0.66-0.02-0.99
			c1.23-0.45,2.47-0.9,4.15-1.52c-3.45-2.86-5.68-5.4-2.64-9.16c0.15-0.19-0.32-0.88-0.5-1.34c-0.07-2.15-0.34-4.32-0.15-6.44
			C505.09,304.88,505.9,303.66,506.4,302.42z"/>
		<path class="st27" d="M504.11,324.62c0.01,0.33,0.02,0.66,0.02,0.99c-0.34,0.27-0.69,0.55-1.03,0.82c-4.76-1.12-6.7-4-5.49-8.35
			c0.34-1.22,1.04-2.33,1.57-3.49c0,1.51,0,3.02,0,4.54c0.39,0.03,0.78,0.06,1.17,0.09c0.28-1.62,0.55-3.23,0.89-5.18
			c-1.2,0.35-1.66,0.49-2.12,0.62c1.31-2.73,2.62-5.47,3.94-8.2c0.05,1.34,0.23,2.7,0.1,4.03c-0.11,1.1-0.6,2.16-0.92,3.23
			C502.86,317.35,503.48,320.98,504.11,324.62z"/>
		<path class="st28" d="M503.09,326.43c0.34-0.27,0.69-0.55,1.03-0.82c1.14,0,2.37,0.25,3.41-0.09c0.95-0.31,2.43-1.31,2.39-1.93
			c-0.23-3.57,2.06-7.27-0.62-10.78c-0.82-1.08-2.3-2.74-0.13-4.19c1.15,2.75,2.37,5.47,3.42,8.25c0.96,2.51,0.35,4.9-0.96,7.16
			C509.3,328.04,507.6,328.53,503.09,326.43z"/>
		<path class="st29" d="M502.23,313.71c0.32-1.08,0.81-2.14,0.92-3.23c0.13-1.33-0.05-2.68-0.1-4.03c0.59-1.78,1.18-3.55,2.01-6.05
			c0.75,1.12,1.05,1.57,1.35,2.01c-0.5,1.24-1.31,2.46-1.43,3.73c-0.19,2.13,0.07,4.29,0.15,6.44
			C504.16,312.97,503.19,313.34,502.23,313.71z"/>
		<path class="st30" d="M502.23,313.71c0.96-0.37,1.93-0.75,2.89-1.12c0.18,0.46,0.65,1.15,0.5,1.34c-3.04,3.76-0.81,6.3,2.64,9.16
			c-1.68,0.62-2.92,1.07-4.15,1.52C503.48,320.98,502.86,317.35,502.23,313.71z"/>
	</g>
</g>
<g>
	<g>
		<path class="st31" d="M694.53,103.62c3.22,0,3.22-5,0-5C691.31,98.62,691.31,103.62,694.53,103.62L694.53,103.62z"/>
	</g>
</g>
<g>
	<g>
		<path class="st31" d="M693.15,99.35c-0.71,0.12-1.41,0.24-2.12,0.36c-0.33,0.08-0.61,0.23-0.85,0.45
			c-0.27,0.18-0.49,0.41-0.64,0.7c-0.18,0.29-0.28,0.6-0.3,0.93c-0.07,0.33-0.06,0.66,0.04,1c0.08,0.2,0.17,0.4,0.25,0.6
			c0.22,0.38,0.52,0.67,0.9,0.9c0.2,0.08,0.4,0.17,0.6,0.25c0.44,0.12,0.89,0.12,1.33,0c0.71-0.12,1.41-0.24,2.12-0.36
			c0.33-0.08,0.61-0.23,0.85-0.45c0.27-0.18,0.49-0.41,0.64-0.7c0.18-0.29,0.28-0.6,0.3-0.93c0.07-0.33,0.06-0.66-0.04-1
			c-0.08-0.2-0.17-0.4-0.25-0.6c-0.22-0.38-0.52-0.67-0.9-0.9c-0.2-0.08-0.4-0.17-0.6-0.25C694.03,99.23,693.59,99.23,693.15,99.35
			L693.15,99.35z"/>
	</g>
</g>
<g>
	<g>
		<path class="st31" d="M686.74,101.85c1.64,2.12,3.29,4.24,4.93,6.36c0.36,0.47,1.21,0.73,1.77,0.73c0.61,0,1.35-0.27,1.77-0.73
			c0.44-0.48,0.76-1.1,0.73-1.77c-0.03-0.22-0.06-0.44-0.09-0.66c-0.12-0.42-0.33-0.79-0.64-1.1c-1.64-2.12-3.29-4.24-4.93-6.36
			c-0.36-0.47-1.21-0.73-1.77-0.73c-0.61,0-1.35,0.27-1.77,0.73c-0.44,0.48-0.76,1.1-0.73,1.77c0.03,0.22,0.06,0.44,0.09,0.66
			C686.21,101.17,686.43,101.53,686.74,101.85L686.74,101.85z"/>
	</g>
</g>
<g>
	<g>
		<path class="st31" d="M682.56,103.57c2.77,3.44,5.85,6.62,9.18,9.52c0.99,0.86,2.58,1.04,3.54,0c0.86-0.94,1.05-2.62,0-3.54
			c-3.33-2.9-6.41-6.08-9.18-9.52c-0.38-0.47-1.19-0.73-1.77-0.73c-0.61,0-1.35,0.27-1.77,0.73c-0.44,0.48-0.76,1.1-0.73,1.77
			C681.85,102.5,682.12,103.02,682.56,103.57L682.56,103.57z"/>
	</g>
</g>
<g>
	<g>
		<path class="st31" d="M694.22,103.24c-0.03,0.37-0.06,0.74-0.11,1.1c0.03-0.22,0.06-0.44,0.09-0.66
			c-0.21,1.58-0.63,3.12-1.25,4.59c0.08-0.2,0.17-0.4,0.25-0.6c-0.04,0.1-0.09,0.2-0.13,0.3c-0.28,0.64-0.44,1.23-0.25,1.93
			c0.16,0.58,0.61,1.21,1.15,1.49c0.58,0.31,1.28,0.46,1.93,0.25c0.58-0.19,1.24-0.57,1.49-1.15c0.51-1.15,0.96-2.31,1.26-3.53
			c0.3-1.22,0.48-2.48,0.57-3.73c0.04-0.61-0.31-1.35-0.73-1.77c-0.43-0.43-1.15-0.76-1.77-0.73c-0.65,0.03-1.32,0.24-1.77,0.73
			C694.49,101.98,694.27,102.55,694.22,103.24L694.22,103.24z"/>
	</g>
</g>
<g>
	<g>
		<path class="st31" d="M693.44,92.57c-1.67,2.47-2.92,5.26-3.64,8.15c-0.13,0.53-0.25,1.06-0.39,1.59
			c-0.07,0.26-0.14,0.52-0.22,0.77c-0.05,0.17-0.12,0.64-0.26,0.75c0.13-0.3,0.16-0.37,0.08-0.2c-0.02,0.05-0.05,0.1-0.07,0.16
			c-0.07,0.12-0.12,0.25-0.19,0.38c-0.05,0.1-0.12,0.19-0.17,0.28c-0.21,0.39,0.26-0.24,0.05-0.05c-0.07,0.07-0.15,0.16-0.22,0.23
			c-0.36,0.4,0.04-0.08,0.08-0.03c0,0-0.25,0.16-0.27,0.17c-0.43,0.29,0.5-0.17-0.01,0c-1.24,0.41-2.18,1.74-1.75,3.08
			c0.4,1.24,1.75,2.19,3.08,1.75c3-0.99,4.16-3.8,4.85-6.65c0.34-1.39,0.73-2.75,1.26-4.08c0.1-0.26-0.13,0.27,0.07-0.15
			c0.08-0.17,0.16-0.35,0.24-0.52c0.17-0.35,0.34-0.69,0.52-1.03c0.38-0.71,0.81-1.4,1.26-2.07c0.73-1.09,0.24-2.82-0.9-3.42
			C695.6,91,694.22,91.41,693.44,92.57L693.44,92.57z"/>
	</g>
</g>
<g>
	<g>
		<path class="st31" d="M683.37,97.43c0.73,0.61,1.42,1.26,2.07,1.96c0.32,0.34,0.62,0.68,0.92,1.04c0.15,0.18,0.29,0.36,0.43,0.54
			c-0.48-0.58,0.06,0.09,0.16,0.23c0.54,0.75,1.03,1.53,1.48,2.34c0.24,0.43,0.46,0.86,0.66,1.3c0.1,0.21,0.19,0.42,0.29,0.63
			c0.14,0.31-0.04-0.07-0.07-0.17c0.05,0.14,0.12,0.29,0.17,0.43c0.24,0.63,0.55,1.14,1.15,1.49c0.54,0.31,1.33,0.45,1.93,0.25
			c1.18-0.38,2.26-1.77,1.75-3.08c-1.58-4.05-4.05-7.7-7.4-10.51c-0.52-0.44-1.07-0.73-1.77-0.73c-0.61,0-1.35,0.27-1.77,0.73
			C682.52,94.82,682.3,96.53,683.37,97.43L683.37,97.43z"/>
	</g>
</g>
<g>
	<g>
		<path class="st26" d="M692.23,96.03c0.92,2.06,1.84,4.13,2.77,6.19c-2.16,1.45-0.69,3.11,0.13,4.19
			c2.68,3.51,0.39,7.21,0.62,10.78c0.04,0.61-1.44,1.62-2.39,1.93c-1.03,0.34-2.26,0.09-3.41,0.09c0-0.33,0-0.66-0.02-0.99
			c1.23-0.45,2.47-0.9,4.15-1.52c-3.45-2.86-5.68-5.4-2.64-9.16c0.15-0.19-0.32-0.88-0.5-1.34c-0.07-2.15-0.34-4.32-0.15-6.44
			C690.91,98.49,691.73,97.28,692.23,96.03z"/>
		<path class="st27" d="M689.94,118.23c0.01,0.33,0.02,0.66,0.02,0.99c-0.34,0.27-0.69,0.55-1.03,0.82c-4.76-1.12-6.7-4-5.49-8.35
			c0.34-1.22,1.04-2.33,1.57-3.49c0,1.51,0,3.02,0,4.54c0.39,0.03,0.78,0.06,1.17,0.09c0.28-1.62,0.55-3.23,0.89-5.18
			c-1.2,0.35-1.66,0.49-2.12,0.62c1.31-2.73,2.62-5.47,3.94-8.2c0.05,1.34,0.23,2.7,0.1,4.03c-0.11,1.1-0.6,2.16-0.92,3.23
			C688.68,110.96,689.31,114.6,689.94,118.23z"/>
		<path class="st28" d="M688.92,120.04c0.34-0.27,0.69-0.55,1.03-0.82c1.14,0,2.37,0.25,3.41-0.09c0.95-0.31,2.43-1.31,2.39-1.93
			c-0.23-3.57,2.06-7.27-0.62-10.78c-0.82-1.08-2.3-2.74-0.13-4.19c1.15,2.75,2.37,5.47,3.42,8.25c0.96,2.51,0.35,4.9-0.96,7.16
			C695.13,121.65,693.42,122.14,688.92,120.04z"/>
		<path class="st29" d="M688.05,107.33c0.32-1.08,0.81-2.14,0.92-3.23c0.13-1.33-0.05-2.68-0.1-4.03c0.59-1.78,1.18-3.55,2.01-6.05
			c0.75,1.12,1.05,1.57,1.35,2.01c-0.5,1.24-1.31,2.46-1.43,3.73c-0.19,2.13,0.07,4.29,0.15,6.44
			C689.98,106.58,689.02,106.96,688.05,107.33z"/>
		<path class="st30" d="M688.05,107.33c0.96-0.37,1.93-0.75,2.89-1.12c0.18,0.46,0.65,1.15,0.5,1.34c-3.04,3.76-0.81,6.3,2.64,9.16
			c-1.68,0.62-2.92,1.07-4.15,1.52C689.31,114.6,688.68,110.96,688.05,107.33z"/>
	</g>
</g>
</svg>
