<?xml version="1.0" encoding="utf-8"?>
<!-- Generator: Adobe Illustrator 22.1.0, SVG Export Plug-In . SVG Version: 6.00 Build 0)  -->
<svg version="1.1" xmlns="http://www.w3.org/2000/svg" xmlns:xlink="http://www.w3.org/1999/xlink" x="0px" y="0px"
	 viewBox="0 0 2000 2000" style="enable-background:new 0 0 2000 2000;" xml:space="preserve">
<style type="text/css">
	.st0{fill:#9C7A49;}
	.st1{fill:#8E6341;}
	.st2{fill:#725936;}
	.st3{fill:#725936;stroke:#000000;stroke-miterlimit:10;}
	.st4{fill:#574429;}
	.st5{display:none;}
	.st6{fill:none;}
	.st7{fill:#800200;stroke:#000000;stroke-miterlimit:10;}
	.st8{font-family:'Algerian';}
	.st9{font-size:164.7961px;}
</style>
<g id="Layer_2">
	<path class="st0" d="M1535.1,1222.7c-3.9-14-14.7-29.2-27.8-36.2c-14-7.4-31.1-11.1-46.6-6.1c-2,0.6-4,1.4-6,2.2
		c-1-1.5-2-3-3.2-4.3c-0.1-0.1-0.2-0.2-0.2-0.4c-0.9-2.3-2-4.6-3.3-6.8c-19.1-40.9-43.3-78.3-70.5-113.7c0,0-0.1-0.1-0.1-0.1
		c-5.2-5.9-11.3-10-18.3-12.4c-0.1,0-0.1,0-0.2-0.1c-3.7-2-7.5-3.4-11.5-4.3c-0.3-0.1-0.6-0.3-0.8-0.6
		c-22.3-33.4-43.7-67.5-64.1-102.3c-34.3-58.4-65.8-118.6-94.4-180.3c-15.1-32.6-29.4-65.7-42.8-99.1
		c-21.4-54.1-41.8-109.5-73.4-158.1c-8.3-12.7-17.1-25.1-26.5-36.9c-0.1-0.1-0.1-0.2-0.2-0.3c-5-10.9-13.3-21.2-22.9-26.5
		c-13.3-7.4-29.4-11.1-44.1-6.1c0,0-0.1,0-0.1,0.1c-4.5,2-9,4-13.5,6c-0.1,0-0.1,0.1-0.2,0.1c-8.6,5.4-15.4,12.6-20.5,21.6
		c0,0,0,0.1,0,0.1c-49.6,74-92.3,152.4-128.8,234.1c-0.3,0.7-1.2,1-1.9,0.6c-3.8-2.3-7.8-4-11.9-4.9c-14.7-3.5-31.2-2.8-44.2,6.1
		c-12.8,8.7-21.9,20.6-26.4,36.2c-8.3,28.7-18,56.9-28.8,84.6c-21.4,52.2-46.7,102.6-74,151.6c-14.2,25.5-29.1,50.7-44.2,75.6
		c-14.9,24.6-30.6,48.7-45.3,73.4c-8.2,13.8-15.9,27.9-22,42.8c-7.9,19.2-15.3,38.1-18.1,58.8c0,0.1,0,0.1,0,0.2
		c-2.4,8-2.7,16-1,23.9c0,0.1,0,0.1,0,0.2c0.4,8,2.6,15.5,6.8,22.4c7,12.5,20.6,24.5,34.3,27.8c14.7,3.5,31.1,2.8,44.1-6.1
		c0,0,0.1-0.1,0.1-0.1c3.8-3.1,7.6-6.2,11.5-9.4c0.1,0,0.1-0.1,0.1-0.1c0.2-0.2,0.4-0.5,0.6-0.7c8.4,5,17.8,7.8,28.1,8.1
		c73.3,2.1,146.6,4.8,219.9,7.8c73.3,3,146.6,6.2,219.9,9.3c41.6,1.8,83.1,3.5,124.7,5.3c14.3,0.6,30.6-7.2,40.6-17.7
		c2.2-2.3,4.2-4.9,6.1-7.8c0.3-0.4,0.7-0.6,1.2-0.6c1.6,0.1,3.3,0.1,4.9,0c22.5-1.2,45.1-1.8,67.7-1.9c0.2,0,0.4,0,0.5,0.1
		c4.7,2.1,9.6,3.3,14.7,3.6c0.1,0,0.1,0,0.2,0c7.1,1.7,14.2,1.4,21.4-0.7c0.5-0.1,1,0,1.3,0.4c7.2,8.2,16.1,14.8,26.6,17.3
		c7.5,1.8,14.8,2.2,22,1.3c0.1,0.3,0.1,0.5,0.2,0.8c3.9,14,14.7,29.2,27.8,36.2c14,7.4,31.1,11.1,46.6,6.1
		c14.6-4.7,28.9-13.8,36.2-27.8c7.9-15.3,15.8-30.6,23.8-45.9C1536.4,1254.9,1539.5,1238.6,1535.1,1222.7z"/>
</g>
<g id="Layer_1">
	<path d="M152.9,1486.7c0-110.3,0-220.7,0-331c0.3-1.7,0.8-3.5,0.8-5.2c0.4-94.8,0.7-189.7,1.1-284.5c0.4-96.7,0.8-193.3,1.2-290
		c0.1-11.1,0.4-22.3,1.1-33.4c0.6-9.5,3.6-18.3,11.6-24.2c8.2-6.1,16.5-12.2,25.2-17.5c57.1-34.7,114.2-69.3,171.5-103.6
		c63.8-38.1,127.7-76,191.9-113.5c56.5-33,113.3-65.4,169.9-98.2c60.3-35,120.5-70.4,180.8-105.6c25.8-15,51.7-29.9,77.3-45.2
		c14-8.3,27.5-9.4,41.5-0.3c6.9,4.5,14.1,8.7,21.2,12.8c46.6,26.5,93.2,52.9,139.8,79.4c43.7,24.9,87.4,49.9,131.1,74.9
		c51.4,29.4,102.7,58.9,154.1,88.3c73.3,41.9,146.7,83.8,220,125.7c52.1,29.8,104.2,59.5,156.4,89.2c11,6.2,20.6,13.5,22.2,27.2
		c1,8.2,1.9,16.5,2.1,24.8c0.6,24.6,0.9,49.3,1.1,73.9c0.2,15.2,0,30.3,0.2,45.5c0.1,11.5,0.6,22.9,0.9,34.4c0,68,0,136,0,204
		c-0.2,1.8-0.5,3.6-0.6,5.4c-0.4,79.6-0.8,159.3-1.3,238.9c-0.3,43.6-0.8,87.3-1.1,130.9c-0.4,52.5-0.7,105-1.1,157.4
		c-0.1,13.4-1,26.9-1.3,40.3c-0.3,14.9-6.9,25.7-19.8,33.1c-13.8,7.9-27.3,16.2-41,24.3c-93,54.5-186,109-279,163.6
		c-13.9,8.1-27.5,16.7-41.3,25c-5.6,3.4-11.1,7-16.9,10c-10.8,5.8-22,10.9-32.7,16.9c-20.2,11.4-40.1,23.4-60.2,34.9
		c-43.2,24.7-86.6,49.3-129.9,74c-53.2,30.3-106.3,60.6-159.4,91.1c-23.6,13.5-47,27.4-70.6,41.1c-3,0-6,0-9,0
		c-9.5-6.3-18.8-13.1-28.6-18.9c-47.4-27.6-95.1-54.8-142.5-82.4c-44.1-25.6-88.1-51.4-132.2-77.1c-37.1-21.6-74.3-43.2-111.4-64.8
		c-43.2-25.2-86.4-50.5-129.6-75.7c-47.9-28-95.9-55.9-143.8-83.8c-44.4-25.9-88.9-51.7-133.4-77.6c-5.4-3.1-10.9-6.2-16.4-9.2
		C162.7,1506.5,154.9,1498.9,152.9,1486.7z M1344.7,1275.7c0,0.1,0,0.1,0,0.2c27,0,54,0.1,81-0.1c6.6,0,13.3-0.3,19.9-1.1
		c12.6-1.6,16.4-8.4,11.5-20.3c-0.6-1.4-1.2-2.7-2-4c-15.1-26.3-29.9-52.8-45.3-79c-52.5-89.4-105.3-178.6-157.8-268.1
		c-28.1-48-55.5-96.5-83.7-144.4c-48.6-82.6-97.6-164.9-146.6-247.3c-9.7-16.3-19.6-32.6-29.9-48.5c-7.4-11.4-15.3-13.5-25.7-2.4
		c-2.9,3.1-5.4,6.8-7.7,10.5c-22.1,36.5-44.3,72.9-66.1,109.6c-21.4,36.1-42.6,72.5-63.6,108.9c-57.6,99.7-115.1,199.4-172.5,299.2
		c-20.9,36.3-41.5,72.7-62.2,109.1c-18.6,32.7-37.4,65.4-55.5,98.3c-9.6,17.4-18.2,35.4-26.8,53.4c-4.3,9.1,0,17,9.8,19.3
		c1.9,0.5,3.9,0.9,5.9,0.9c20,0.4,39.9,0.7,59.9,0.9c55.1,0.6,110.3,1.3,165.4,1.9c35.3,0.4,70.6,0.8,105.9,1.1
		c45.6,0.4,91.3,0.8,136.9,1c88.3,0.4,176.6,0.8,264.9,1.1C1288.7,1275.8,1316.7,1275.7,1344.7,1275.7z M1066.4,423
		c0,0.2-0.1,0.4-0.1,0.6c-1.2,0-2.3,0-3.5,0c-7.5,0.1-11.4,4.8-9.6,12c0.7,3,2,6,3.6,8.7c9.1,15.9,18.2,31.8,27.5,47.5
		c41.9,71.4,83.8,142.8,125.8,214.2c24.9,42.3,49.9,84.6,74.8,126.9c27,45.7,53.9,91.4,80.9,137.1c29.5,50,59.1,99.9,88.7,149.8
		c17.4,29.2,34.8,58.4,52.4,87.5c2.9,4.7,6.5,9.1,10.4,13c3.4,3.5,8.2,3.5,11.4-0.2c3.5-4.1,6.8-8.7,8.8-13.7
		c14.3-35.7,28.1-71.6,42.4-107.3c22.8-56.7,45.8-113.2,68.7-169.8c25.7-63.5,51.5-127,77.2-190.5c16.9-41.8,33.7-83.6,50.5-125.4
		c4.6-11.5,9.9-22.9,13.3-34.7c4.2-14.2,0.1-18.7-13.8-23.2c-0.3-0.1-0.7-0.1-1-0.1c-19-3.8-38-7.5-57-11.3
		c-30.4-5.9-60.7-11.9-91.1-17.7c-25.3-4.8-50.6-9.5-75.9-14.3c-38.3-7.2-76.7-14.5-115-21.8c-20.5-3.9-41-7.7-61.5-11.7
		c-17.2-3.3-34.3-7-51.5-10.2c-33.5-6.1-67-12-100.5-17.9c-22.6-4-45.3-8.1-67.9-12.2c-17.6-3.2-35.2-6.6-52.8-9.8
		C1089.9,426.8,1078.1,425,1066.4,423z M597.8,1334.8c0-0.4,0-0.8,0-1.2c-18,0-36-0.1-54,0.1c-3.4,0-6.9,0.7-10.2,1.7
		c-6.4,1.9-8.6,6.7-5.7,12.8c1.9,4,4.3,7.9,7.1,11.3c11.4,13.6,23.1,27,34.5,40.6c12.1,14.5,23.8,29.5,36.1,43.9
		c12.4,14.6,25.4,28.5,37.8,43.1c26.1,30.5,51.9,61.1,77.9,91.7c14.6,17.2,29.5,34.2,44.1,51.3c19.7,23,39.3,46,59,68.9
		c16,18.7,32,37.4,48,56.1c22.7,26.4,45.5,52.9,68.3,79.2c13.3,15.4,26.6,30.7,40.1,45.9c8,8.9,16.2,17.6,24.9,25.7
		c2.2,2,6.8,2.6,10.1,2.2c7.9-1.1,12.2-7.8,16.6-13.3c22.8-28.4,45.3-57.1,67.7-85.7c19.9-25.4,39.6-50.9,59.5-76.3
		c22.8-29,45.9-57.9,68.7-86.9c44.2-56.4,88.2-112.9,132.4-169.2c26.8-34.1,53.9-68,80.5-102.2c4.3-5.6,7.8-11.9,10.7-18.4
		c2.4-5.4,0.7-9.5-4.8-11c-6.4-1.8-13.3-2.9-20-3.1c-21.5-0.6-43-0.7-64.4-0.9c-44.3-0.5-88.6-0.8-133-1.4
		c-17.8-0.2-35.6-1.3-53.4-1.5c-18-0.2-36,0.5-54,0.3c-50.8-0.7-101.6-1.8-152.4-2.5c-20.3-0.3-40.6,0.2-60.9,0
		c-36.6-0.3-73.3-1-109.9-1.1C732.1,1334.7,664.9,1334.8,597.8,1334.8z M888.8,424.7c0-0.2-0.1-0.3-0.1-0.5
		c-13.1,2.4-26.3,4.6-39.4,7.2c-40.5,8.3-80.9,16.9-121.4,25.2c-39.6,8.1-79.2,15.8-118.8,23.9c-40.1,8.2-80.2,16.8-120.3,25.3
		c-51,10.8-101.9,21.7-152.8,32.7c-21.7,4.7-43.3,9.5-64.9,14.4c-7.4,1.7-15,3.3-22.1,6c-6.9,2.6-11.2,8.2-10.1,16
		c1.2,8.3,2.8,16.7,5.2,24.8c7.5,24.6,15.2,49.1,23.3,73.5c29.8,90.7,59.6,181.4,89.6,272.1c27,81.7,54.2,163.2,81.5,244.8
		c1.6,4.7,4.4,9.3,7.5,13.3c2.2,2.9,6.1,4,9.2,0.8c3.7-3.9,7.6-7.8,10.3-12.4c17-28.8,33.7-57.8,50.4-86.7
		c30.1-51.9,60.2-103.8,90.2-155.8c37.8-65.6,75.5-131.3,113.3-197c30.9-53.6,61.8-107.2,92.8-160.8c13.2-22.8,26.4-45.7,39.7-68.4
		c12.8-21.9,26.1-43.5,38.7-65.4c4.1-7.1,7-15,9.8-22.7c1.9-5.3-1.5-9.5-7.1-10C891.8,424.6,890.3,424.7,888.8,424.7z
		 M1391.3,1571.2c-0.5-0.4-1.1-0.8-1.6-1.2c2.2-9.1,4.1-18.2,9.7-26.1c0.4-0.5,1-0.8,1.5-1.3c11.8-9.9,25.2-17.1,39.5-22.4
		c6.1-2.3,13.7-4.3,19.7-2.7c12.4,3.3,24.2,8.7,35.9,14.1c10.4,4.8,17.6,13.4,21.7,24.1c6.9,17.8,13.6,35.6,16.1,54.7
		c1.8,13.5,11.9,17.7,22.9,9.8c2.1-1.5,4.3-3.2,6.2-5c8.5-8.3,10-14.2,4.2-24.7c-4.6-8.3-10.5-16-16.5-23.5
		c-8.8-11-18.6-21.2-27.4-32.2c-15.2-19.1-27.1-40.9-46-57.2c-1.8-1.6-2.8-6.3-1.8-8.5c2.2-4.5,5.4-9,9.3-12.2
		c8.2-6.6,14.2-6.7,19.9,3.9c0.7,1.3,1.4,2.6,2.2,3.9c4.7,7.2,8.9,14.8,14.2,21.6c12.2,15.6,24.9,30.9,37.5,46.3
		c8.4,10.3,15.8,21.6,27,29.2c7,4.7,10,10.5,9.5,19.2c-0.6,9.1,3.2,11.6,12.1,9.1c2.1-0.6,4.1-1.4,6-2.4c5.3-2.8,10.6-5.5,15.8-8.5
		c32.7-18.9,65.4-37.9,98.1-57c10.4-6.1,20.8-12.1,30.8-18.9c10.5-7.1,6.9-15.6-0.7-20.4c-23.5-14.6-47.1-28.9-70.8-43.1
		c-30.1-18-60.4-35.9-90.7-53.7c-14.6-8.6-29.2-17.1-44.2-25c-10.3-5.4-20.3-2.7-27.5,6.3c-10.1,12.5-19.8,25.3-29.8,37.9
		c-15,19.1-29.9,38.4-45.1,57.4c-16.5,20.5-33.6,40.4-46.8,63.3c-4.8,8.3-10.1,16.3-16.3,23.6c-11.1,13.1-23.7,24.9-34.3,38.3
		c-33.6,42.8-66.5,86.1-99.7,129.2c-23.5,30.5-47.1,60.9-70.4,91.6c-3.9,5.1-6.8,11-9.3,16.9c-2.6,6.1-0.2,9,6.5,7.9
		c3.7-0.6,7.4-2.1,10.7-3.9c40-22.1,80-44.2,119.8-66.7c48.7-27.7,97.2-55.8,145.8-83.7c15-8.6,30.1-17.1,44.8-26.3
		c8.7-5.4,14.2-13.7,12.7-24.3c-1-7.3-3.2-14.7-6.6-21.2c-5.5-10.7-12.9-10.9-20.5-1.7c-0.5,0.6-0.9,1.4-1.4,2.1
		c-9.3,13.3-18,27-28.1,39.6c-14.2,17.6-39,24.4-58.9,8.9c-12.4-9.6-20.7-22.5-25.8-37.2c-1.6-4.6-1.5-10-1.2-15
		c0.6-10,7.4-16.7,13.8-23.5c0.5-0.5,1.4-0.6,2.4-0.9c0.8,5.5,1.1,10.6,2.3,15.5c4.1,16.4,15.3,27.5,28.8,36.6
		c10.7,7.2,21.7,6.8,31.9-0.8c6.5-4.9,11.6-11,14.7-18.6c5.7-13.7,6.7-28.1,6-42.6c-0.3-7.1-7.6-15.9-14-17
		c-16.8-2.9-33.2-3.3-47.8,8C1402.9,1564.8,1396.9,1567.8,1391.3,1571.2z M1702.5,1147c-1.8-3.2-2.8-4.8-3.6-6.5
		c-1-2.1-1.5-4.4-2.6-6.4c-2.2-4.3-4.8-4.6-8.1-1.2c-0.8,0.8-1.7,1.6-2.3,2.6c-8.8,13.4-16.6,27-18.2,43.5
		c-1.6,15.7-12.7,17.4-22.7,10.7c-5.4-3.6-7.3-10.9-4.1-15c8.7-11.1,13.9-24.1,19-37c5.4-13.8,10.2-27.7,15.4-41.6
		c11.3-30.2,26.2-59.1,29.8-91.8c0.2-1.7,1.7-4.2,3.1-4.6c3.8-1.1,8.2-2.4,11.7-1.5c11.9,3.3,19.3,8.3,9.4,22.1
		c-5.7,8-9.5,16.8-10.5,26.6c-0.4,3.5,0.5,7.2,0.8,10.8c3.2-1.5,6.8-2.4,9.4-4.6c11.3-9.5,24.1-14.9,38.8-14.1
		c9.8,0.6,19.5,2.6,29.2,4.4c6.7,1.2,11.9-0.9,12.8-7.5c1.6-11.5,2.6-23.1,2.6-34.7c-0.2-63.6-0.9-127.3-1.3-190.9
		c-0.2-20.9,1.4-42-3.2-62.7c-0.6-2.8-2.3-6.4-4.6-7.5c-3.7-1.8-5.6,2.4-7.6,4.8c-1.2,1.4-2.1,3-2.9,4.6
		c-4.7,10.2-9.6,20.3-13.9,30.6c-21,50.5-41.9,101-62.7,151.5c-6.3,15.4-12.2,30.9-18.1,46.5c-2.7,7.2-4.6,14.7-7.6,21.8
		c-2.3,5.5-6,10.3-8.5,15.8c-5.6,12.5-10.8,25.1-16,37.7c-25.8,63.2-51.5,126.5-77.2,189.7c-4.5,11.1-9.4,22-13.3,33.3
		c-3.1,9.1-0.9,17.6,6.9,23.8c5.4,4.4,11,8.7,16.9,12.3c15.1,9.3,30.3,18.3,45.6,27.2c43.3,25.2,86.6,50.3,129.9,75.4
		c6.7,3.9,13.5,7.7,20.6,10.9c7.8,3.6,13.6,0.5,15.4-7.6c0.7-3.1,1.1-6.2,1.1-9.3c0.4-29.6,0.7-59.3,1.1-88.9
		c0.2-11.5-1.7-22.5-8.1-32.3c-4.5-6.9-3.2-13,1-19.8c2.9-4.6,5.3-10.3,5.6-15.6c0.7-13.1,0.4-26.3-0.1-39.4
		c-0.4-10.6-1.7-21.2-3.1-31.7c-0.3-2.5-2.9-4.7-4.4-7c-1.6,2.2-3.9,4.1-4.5,6.5c-2.8,9.7-4.9,19.6-7.5,29.3
		c-4.3,16-10.3,31-23.1,42.4c-10.1,9-24.4,11.1-36.3,4.5c-5.5-3.1-10.6-6.9-15.5-10.8c-21.2-16.7-27.8-38.5-21.8-64.5
		c0.6-2.4,2.1-4.5,3.8-7.8c2.9,4.5,5,7.6,7,10.8c8.9,14.5,21,25.1,37.2,30.8c11.3,3.9,20,1.4,27.9-7.8
		c10.4-12.1,13.6-26.7,13.8-41.7c0.1-11.9-2.4-23.9-4.1-35.8c-1.2-8.1-2.9-16.2-4.8-24.2c-2.4-10.6-11.2-16.9-20.7-15
		c-9.1,1.8-17.1,5.9-24.2,12.1c-7.8,6.9-12.5,15.6-17.1,24.7C1710.6,1133.8,1706.7,1139.7,1702.5,1147z M478.2,1503.9
		c-0.1,0.6-0.1,1.3-0.2,1.9c-5.5,0-11-0.4-16.5,0.1c-11.8,0.9-23.7,1.6-34.4,7.2c-8.9,4.7-17.7,9.5-26.6,14.2
		c-9.4,4.9-14.5,16.1-11.3,26.1c2.7,8.4,7.2,15.8,14.9,20.4c20.2,12.1,41.9,20.9,65.6,22.3c26.7,1.6,52.9-1.6,76.5-16.2
		c14.8-9.1,24.9-20.4,22.9-39.2c-0.5-5,2.9-7.1,7.5-5c10.3,4.9,16.7,13,18.2,24.4c2,15.1-2.3,28-13.8,38.6
		c-5.1,4.7-9.5,10.3-13.7,15.8c-3.1,4.1-2.1,6,3,6.3c19.1,0.8,37.8-1.4,54.9-10.9c11.7-6.5,20.2-4.2,26.1,6.9
		c3.8,7.1,1.3,13.1-6.5,15c-1.4,0.4-2.9,0.7-4.4,0.9c-11.4,2.2-22.9,4.1-34.2,6.6c-10.1,2.3-20,5.2-30,8c-4.8,1.3-9.8,2.1-14.1,4.3
		c-5.6,2.9-6,7.9-1.4,12.2c3.5,3.3,7.2,6.4,11.3,8.7c41.7,24.1,83.4,48.2,125.3,71.9c28.4,16.1,56.9,32,85.6,47.4
		c11.4,6.1,23.5,10.9,35.4,16.1c1.7,0.7,5.1,0.5,5.9-0.7c1.1-1.5,0.7-4.3,0.5-6.5c-0.1-1.2-1-2.5-1.7-3.5c-4.9-7.1-9.4-14.5-15-21.1
		c-18.8-22.2-38-44.1-57-66.2c-12.6-14.6-25.2-29.2-37.7-43.9c-13-15.2-24.7-31.4-39.8-44.7c-5.2-4.6-9.6-10.1-14.1-15.4
		c-16.2-18.9-29.5-40-47.3-57.7c-14.7-14.6-27.3-31.3-40.8-47c-11.9-13.9-23.8-27.8-35.7-41.7c-14.3-16.6-28.6-33.3-43-49.9
		c-8.4-9.7-16.7-19.4-25.2-29c-6.8-7.5-13.5-15.2-20.9-21.9c-5.3-4.8-12.4-6.3-19-2.7c-10.7,5.7-21.4,11.6-31.2,18.6
		c-35.2,25-70.1,50.5-105,76c-10.2,7.4-20.2,15.1-29.9,23.2c-5.9,4.9-6.7,11.3-3,15.7c2,2.4,4.4,4.7,7,6.3
		c15.7,9.4,31.4,18.7,47.3,27.8c10.5,6,21,11.9,31.9,17c8.4,3.9,13.3,1.1,16.5-7.5c2.4-6.5,4.9-13,7.8-19.3
		c4.9-10.6,12.7-18.1,23.4-23.4c12.8-6.3,26.3-9.4,40.3-10.7c20.2-1.9,40.2-0.2,59.7,5.4c14.9,4.3,29.8,8.7,42.7,17.9
		c2.4,1.7,4,4.7,6,7.1c-3.1,0.2-6.4,0.8-9.4,0.4C513.6,1508.6,495.9,1506.2,478.2,1503.9z M969.5,168.8c-0.6-12-0.9-21.1-1.7-30.2
		c-0.5-6.7-8.2-11.3-13.8-9.1c-5.8,2.3-12,3.9-17.4,7c-29.9,17-59.7,34.1-89.4,51.5c-6.5,3.8-12.7,8.5-18.4,13.4
		c-4.4,3.8-3.1,8.6,2.3,10.8c4,1.6,8.1,2.9,11.9,4.7c6.7,3,12.8,7.1,15.4,14.1c3.7,10,0.2,18.8-6.9,26.3c-3.4,3.6-7.2,6.9-10.5,10.7
		c-3.5,4-3.1,7.6,0.6,11.4c2,2,3.9,4.1,6.1,5.9c12.2,10.2,14.2,22,4.5,35.7c-8.4,11.9-18.8,21.4-31.2,28.7c-8.6,5-17.6,8.6-27.8,6
		c-4.5-1.1-5.5-3.6-2.6-7.2c5.1-6.1,10.9-11.7,15.7-18c3.7-4.9,7.7-10.2,9.2-16c2.7-10.5-8.6-20.3-17.5-21.7
		c-20.9-3.3-39.4,1.8-54.4,16.7c-10.2,10.1-9.1,19.6,1.1,30.4c3.6,3.8,8.2,6.8,12,10.4c2.2,2.1,3.7,4.8,5.5,7.2
		c-2.7,1.7-5.4,3.3-8.2,4.9c-0.3,0.2-0.7,0.1-1,0.1c-18,3.4-33.6-1.8-46.5-14.2c-7.6-7.3-10.9-16.7-8.8-27.5
		c1.5-7.5,6.2-12.8,11.7-17.4c4.8-4.1,10.1-7.6,14.8-11.9c7.8-7.2,7.2-12.3-1.7-18.3c-8.3-5.5-16.1-4.1-24.2,0.7
		c-9.8,5.8-18.9,12.1-21.5,23.9c-4.4,19.9-8.4,39.9-9.2,60.3c-0.5,11.7-3.1,15.8-14,17.7c-14,2.4-23.7-1.7-18.7-18.7
		c0.3-1.1,0.9-2.2,1-3.3c1.3-8.6,3.5-17.3,3.5-25.9c0-11.2-6.6-14.7-16.5-9.6c-13.9,7.2-27.7,14.5-41.2,22.3
		c-49.5,28.6-98.9,57.4-148.2,86.4c-7.8,4.6-15.1,10.3-22.2,16c-1.8,1.4-2.4,4.5-3.5,6.8c2.3,0.9,4.7,2.7,7,2.6
		c7.6-0.1,15.4-0.3,22.9-1.6c22.7-4.1,45.3-8.7,67.9-13.4c39.9-8.2,79.9-16.5,119.8-24.9c35.6-7.5,71.2-15.2,106.8-22.9
		c31.5-6.8,62.9-13.6,94.4-20.5c34.1-7.5,68.1-15.2,102.1-22.8c12.7-2.8,20.6-10.4,22.3-23.6c1.7-12.8,3.3-25.6,4.8-38.5
		c2.1-18.2,4-36.5,6.1-54.7C964.6,208.6,967.3,187.4,969.5,168.8z M1183.6,295.9c-12.2,3.6-24.6,7.8-38,6.3
		c-3.8-0.4-7.7-1.7-11.2-3.4c-5.9-2.9-6.9-8.8-2.4-13.4c3-3,6.3-5.9,10-8c8.7-5.1,17.8-9.6,26.7-14.4c14.4-7.7,28.7-15.5,44.9-19.3
		c4.3-1,8.6-3.6,12.2-6.4c4.8-3.8,4.7-10,0.5-14.4c-1.5-1.5-3.1-3-4.9-4.1c-10.5-6.7-20.8-13.8-31.6-19.8
		c-36-20.2-72.3-40-108.4-59.9c-9-4.9-17.9-10-27.2-14.2c-8.7-4-15.3-0.7-18.2,8.4c-1.1,3.5-1.8,7.1-2.2,10.7
		c-0.7,7.3-0.8,14.6-1.5,21.9c-1,10.9-2.5,21.7-3.6,32.5c-1.1,11-2.1,22.1-3.2,33.1c-1.3,13-2.6,26-3.8,39
		c-1,10.9-1.9,21.8-2.7,32.7c-0.6,7.5-1.5,15-1.2,22.4c0.6,15.5,6.2,22.1,21.2,25.3c23.2,4.9,46.4,9.5,69.7,14.1
		c20.7,4.1,41.5,7.9,62.2,11.9c14.1,2.8,28.2,3.7,42.6,2.7c7.6-0.5,7.3-0.5,7.3-8.2c0-3.1,1.2-6.4,2.6-9.2
		c5.3-10.7,11.4-21,16.1-31.9c4.6-10.7,1.4-19.1-8.1-25.8c-2.1-1.5-4.1-3.1-6.9-5.1c3-0.6,4.9-1.1,6.9-1.4
		c21.1-3.2,32.6-14,37.1-34.7c2.7-12.3-3.4-20.1-16-19.3c-6.5,0.4-13.4,1.8-19.2,4.7c-14.2,7.1-28,14.9-41.5,23.2
		c-9.8,6-15,9.2-8.2,22.8C1183.8,294.5,1183.7,294.7,1183.6,295.9z M216.8,1361.1c-0.4,0-0.8,0-1.2,0c0.8,11.9,1.4,23.9,2.3,35.8
		c0.9,11.7,9.7,16.9,20.4,11.7c5.3-2.6,10.5-5.7,15.3-9.1c25.6-18.1,51.2-36.2,76.6-54.6c17.1-12.4,33.7-25.5,50.8-37.9
		c12.4-9,17-20.4,13.1-35.2c-0.3-1.3-0.5-2.6-0.9-3.9c-9.4-30.5-18.7-61.1-28.3-91.6c-12.8-40.7-25.9-81.3-39.1-121.9
		c-2.3-7-5.6-13.8-9.3-20.3c-1.3-2.2-5-3.9-7.7-4.1c-1.2-0.1-3.3,4.1-3.9,6.6c-2.7,11.8-1.1,23.5,2.1,34.9
		c5.5,19.9,12.2,39.5,20.3,58.6c4.5,10.7,6.8,22.4,9.3,33.8c1.4,6.3-2.3,9.7-8.8,9.6c-2.1,0-4.4-0.1-6.3-0.8
		c-19.3-6.9-38.6-13.9-57.9-21c-11.6-4.3-19.9-12.1-25.1-23.3c-1.5-3.3-3.4-6.7-6-9.1c-2.3-2.1-6.5-4.7-8.6-3.9
		c-2.7,1-5.5,5.3-5.7,8.3c-1.1,14.6-1.7,29.2-1.8,43.8c-0.1,8.5,1.3,16.9,6.5,24.2c3.9,5.5,2.9,11.3-0.2,16.9
		c-8.2,14.5-8,29.9-4.6,45.5c1.5,6.7,5.6,9.7,12.3,8.5c4.8-0.8,9.5-2.6,13.9-4.8c14.4-7.4,28.7-15.2,43-22.7
		c15.8-8.3,31.6-16.5,47.5-24.6c2.3-1.2,5-2.3,7.5-2.4c1.8-0.1,4.7,1,5.3,2.4c2.8,6.5,5.8,13.1,7,20c1.4,7.6-1.2,11.2-8.8,13.2
		c-14.1,3.7-27,9.7-39.4,17.4c-13.5,8.4-28.4,14.2-42.5,21.6c-12.9,6.7-25.2,14.6-35.9,24.7c-6.5,6.2-10.9,13.5-11,22.7
		C216.7,1340.4,216.8,1350.7,216.8,1361.1z M1313.1,272.3c-3.7,1.8-7.5,2.6-9.4,4.9c-3.5,4.3-7.1,9.1-8.4,14.3
		c-3.6,14.5-9.1,28.1-16,41.3c-5.1,9.8-9,20.2-6.5,31.6c2.1,9.4-1.2,15.6-9.5,20c-3.4,1.8-2.3,4.1,0.8,5.3c9.4,3.5,18.7,7.8,28.5,10
		c23.4,5.2,47,9.6,70.6,14c26.8,5,53.8,9.4,80.6,14.3c22.9,4.2,45.8,8.6,68.6,12.9c22.1,4.2,44.2,8.8,66.3,12.6
		c9.4,1.6,19.1,1.8,28.6,2.2c1.7,0.1,4.7-1.3,5.1-2.6c0.4-1.5-1-4.1-2.3-5.4c-3.3-3.2-6.8-6.5-10.7-8.9
		c-24.4-15-48.9-29.9-73.6-44.5c-34.2-20.2-68.5-40.2-102.7-60.2c-30.9-18.1-61.7-36.3-92.7-54.2
		C1325.2,276.7,1319.2,274.9,1313.1,272.3z M307.8,1002.7c-1-4-2.5-11.7-4.9-19.1c-18.5-55.3-37.1-110.5-56-165.7
		c-4.8-14.1-10.2-28.1-15.9-41.9c-1.2-2.9-5-4.8-7.6-7.1c-1.5,3-4,5.8-4.4,8.9c-1.4,12.2-3,24.5-3,36.7c0,58.8,0.6,117.6,0.7,176.5
		c0,17.3-0.7,34.6-0.8,52c-0.1,10.3,3.6,19.3,10.1,27.5c7.5,9.4,15,19.1,20.6,29.6c9.6,18,24.5,27,43.8,30.4
		c8.3,1.4,14.7-3.1,15.4-11.3c0.3-3.8,0.3-7.7-0.5-11.4c-2.4-11.3-5.2-22.5-7.8-33.8c-2.5-10.5-6.6-20.2-15.1-27.5
		c-2.3-2-3.8-5-5.2-7.8c-2-3.9-1.2-7.7,2.8-9.8c5.1-2.6,10.2-5.3,15.7-6.8C305.1,1019.2,307.7,1016.3,307.8,1002.7z M800.3,226.7
		c-12,0-27.5,6.4-35.3,14.4c-5.5,5.6-6.5,12.2-4.1,19.3c2.3,6.8,7.5,10.4,14.4,11.4c14.5,2,26.8-3.3,37.7-12.4
		c6.3-5.3,8.1-14,5.1-21.3C814.9,230.2,809.3,226.7,800.3,226.7z"/>
	<path class="st1" d="M1875.9,710.7c-0.3-11.5-0.8-22.9-0.9-34.4c-0.2-15.2,0-30.3-0.2-45.5c-0.3-24.6-0.6-49.3-1.1-73.9
		c-0.2-8.3-1-16.6-2.1-24.8c-1.7-13.6-11.3-20.9-22.2-27.2c-52.2-29.7-104.3-59.4-156.4-89.2c-73.3-41.9-146.7-83.8-220-125.7
		c-51.4-29.4-102.7-58.9-154.1-88.3c-43.7-25-87.4-50-131.1-74.9c-46.6-26.5-93.2-52.9-139.8-79.4c-7.2-4.1-14.3-8.3-21.2-12.8
		c-14-9.1-27.5-8-41.5,0.3C959.7,50.2,933.8,65,908,80.1c-60.3,35.2-120.5,70.5-180.8,105.6c-56.6,32.9-113.5,65.2-169.9,98.2
		c-64.1,37.5-128.1,75.4-191.9,113.5C308.1,431.6,251,466.3,193.9,501c-8.7,5.3-17,11.5-25.2,17.5c-8,5.9-11.1,14.7-11.6,24.2
		c-0.7,11.1-1,22.2-1.1,33.4c-0.5,96.7-0.8,193.3-1.2,290c-0.4,94.8-0.7,189.7-1.1,284.5c0,1.7-0.5,3.5-0.8,5.2
		c0-376.3,0-752.6,0-1128.9c574.3,0,1148.7,0,1723,0C1875.9,254.8,1875.9,482.8,1875.9,710.7z"/>
	<path class="st1" d="M152.9,1486.7c2,12.2,9.8,19.8,20.1,25.4c5.5,3,11,6.1,16.4,9.2c44.5,25.9,88.9,51.7,133.4,77.6
		c48,27.9,95.9,55.9,143.8,83.8c43.2,25.2,86.4,50.5,129.6,75.7c37.1,21.6,74.3,43.2,111.4,64.8c44.1,25.7,88.1,51.5,132.2,77.1
		c47.5,27.5,95.1,54.8,142.5,82.4c9.9,5.7,19.1,12.6,28.6,18.9c-286,0-572,0-858,0C152.9,1830.1,152.9,1658.4,152.9,1486.7z"/>
	<path class="st1" d="M1019.9,2001.7c23.5-13.7,46.9-27.6,70.6-41.1c53.1-30.4,106.3-60.8,159.4-91.1c43.3-24.7,86.6-49.2,129.9-74
		c20.1-11.5,40-23.5,60.2-34.9c10.7-6,21.8-11.2,32.7-16.9c5.8-3.1,11.3-6.7,16.9-10c13.8-8.3,27.4-16.9,41.3-25
		c93-54.6,186-109.1,279-163.6c13.7-8,27.2-16.4,41-24.3c13-7.4,19.5-18.2,19.8-33.1c0.2-13.4,1.2-26.9,1.3-40.3
		c0.5-52.5,0.7-105,1.1-157.4c0.3-43.6,0.9-87.3,1.1-130.9c0.5-79.6,0.8-159.3,1.3-238.9c0-1.8,0.4-3.6,0.6-5.4
		c0,362.3,0,724.7,0,1087C1590.6,2001.7,1305.2,2001.7,1019.9,2001.7z"/>
	<path class="st2" d="M1066.4,423c11.7,1.9,23.5,3.8,35.2,5.8c17.6,3.2,35.2,6.6,52.8,9.8c22.6,4.1,45.3,8.2,67.9,12.2
		c33.5,6,67,11.8,100.5,17.9c17.2,3.2,34.4,6.9,51.5,10.2c20.5,4,41,7.8,61.5,11.7c38.3,7.3,76.7,14.5,115,21.8
		c25.3,4.8,50.6,9.4,75.9,14.3c30.4,5.8,60.8,11.8,91.1,17.7c19,3.7,38,7.5,57,11.3c0.3,0.1,0.7,0,1,0.1c13.9,4.5,18,8.9,13.8,23.2
		c-3.5,11.9-8.7,23.2-13.3,34.7c-16.8,41.8-33.6,83.6-50.5,125.4c-25.7,63.5-51.5,127-77.2,190.5c-22.9,56.6-46,113.1-68.7,169.8
		c-14.3,35.7-28.1,71.6-42.4,107.3c-2,5-5.3,9.6-8.8,13.7c-3.2,3.7-8,3.7-11.4,0.2c-3.9-4-7.5-8.3-10.4-13
		c-17.6-29.1-35-58.3-52.4-87.5c-29.6-49.9-59.2-99.9-88.7-149.8c-27-45.7-53.9-91.4-80.9-137.1c-24.9-42.3-49.9-84.6-74.8-126.9
		c-42-71.4-83.9-142.8-125.8-214.2c-9.3-15.8-18.4-31.6-27.5-47.5c-1.6-2.7-2.8-5.7-3.6-8.7c-1.8-7.3,2.1-12,9.6-12
		c1.2,0,2.3,0,3.5,0C1066.3,423.4,1066.4,423.2,1066.4,423z M1420.9,676.9c0,0.3-0.1,0.6-0.1,0.9c-3.2,0-6.3-0.1-9.5,0
		c-8,0.4-13.2,6.8-11.4,14.5c3.6,14.9,12.2,26.8,23.9,36.1c21.5,17,37,38.3,47.6,63.4c3.2,7.7,2.9,15.4-3.9,21.4
		c-3.9,3.5-8.2,6.8-12.8,9.3c-12.5,7-25.3,13.6-38,20.2c-8.3,4.3-16.9,5.6-26,2.3c-2.4-0.9-5.2-1.1-7.7-1c-3.8,0.2-5.9,2.4-4.5,6.4
		c1.4,4.2,2.6,8.6,4.7,12.5c6.5,12.5,13.2,24.8,20.2,37c2,3.5,4.7,6.8,7.5,9.8c7.5,7.7,15.2,2.6,16.8-4.9
		c2.6-12.2,10.1-20.8,19.9-27.7c15.2-10.6,31.2-19.7,48.6-26.3c5.6-2.1,11.2-4.9,16.1-8.4c27.2-19.2,55.6-36.3,86.5-49.1
		c12.6-5.2,24.8-9,38.6-6c8.9,1.9,12.6-3.4,9.1-11.8c-0.9-2.1-2.1-4.1-3.4-6.1c-9.2-14.9-18.5-29.9-27.7-44.8
		c-5.5-8.9-13.7-13.5-23.8-15c-14.6-2.2-29.2-3.9-43.2-9.2c-11.8-4.5-23.8-8.8-36.1-11.6c-13.2-3-26.8-4.5-40.2-6.2
		C1455,680.6,1437.9,678.9,1420.9,676.9z M1266.9,661.4c0.6,2.8,0.6,4.6,1.3,6.1c5.9,12,11.8,24,18,35.8c1.2,2.3,3.5,4,5.5,5.7
		c3,2.5,5.9,2.7,8.6-0.7c2.1-2.6,4.4-5,6.4-7.6c6.9-8.7,14.9-16,25.1-20.9c12.3-5.9,24.7-11.8,36.7-18.6
		c35.7-20.2,71.1-40.8,106.7-61.2c11.6-6.7,23.6-12.1,37.5-12.6c9.5-0.4,13.1-7.3,8.4-15.6c-8-14.1-20.1-24.2-33.7-32.5
		c-6.4-3.8-8.8-3.1-11.6,3.8c-4.7,11.4-13.4,18.1-23.7,23.9c-14.9,8.3-29.3,17.3-44.1,25.7c-10.1,5.7-20.1,11.7-30.6,16.4
		c-12.9,5.7-25.2,12.2-36.3,20.9c-16.9,13.2-36.4,21.3-57.2,26.1c-4.4,1-8.9,1.4-13.2,2.5C1269,659,1267.8,660.7,1266.9,661.4z"/>
	<path class="st2" d="M597.8,1334.8c67.1,0,134.3-0.1,201.4,0.1c36.6,0.1,73.3,0.8,109.9,1.1c20.3,0.1,40.6-0.3,60.9,0
		c50.8,0.7,101.6,1.8,152.4,2.5c18,0.2,36-0.5,54-0.3c17.8,0.2,35.6,1.3,53.4,1.5c44.3,0.6,88.6,0.9,133,1.4
		c21.5,0.2,43,0.3,64.4,0.9c6.7,0.2,13.5,1.3,20,3.1c5.5,1.5,7.3,5.6,4.8,11c-2.9,6.4-6.4,12.8-10.7,18.4
		c-26.7,34.2-53.8,68-80.5,102.2c-44.2,56.4-88.2,112.9-132.4,169.2c-22.8,29.1-45.9,57.9-68.7,86.9c-19.9,25.4-39.6,50.9-59.5,76.3
		c-22.5,28.7-44.9,57.3-67.7,85.7c-4.4,5.5-8.7,12.2-16.6,13.3c-3.3,0.5-7.9-0.1-10.1-2.2c-8.7-8.1-16.9-16.8-24.9-25.7
		c-13.6-15.1-26.9-30.5-40.1-45.9c-22.8-26.4-45.5-52.8-68.3-79.2c-16-18.7-32-37.4-48-56.1c-19.7-23-39.3-46-59-68.9
		c-14.7-17.1-29.5-34.1-44.1-51.3c-26-30.5-51.8-61.2-77.9-91.7c-12.4-14.5-25.5-28.5-37.8-43.1c-12.3-14.4-23.9-29.4-36.1-43.9
		c-11.4-13.6-23.1-27-34.5-40.6c-2.8-3.4-5.2-7.3-7.1-11.3c-2.8-6.1-0.6-10.8,5.7-12.8c3.3-1,6.8-1.6,10.2-1.7c18-0.2,36-0.1,54-0.1
		C597.8,1334,597.8,1334.4,597.8,1334.8z M1011.9,1407.4c0,0.1-0.1,0.3-0.1,0.4c-3.3,0-6.7-0.4-10,0.1c-12.2,1.8-24.5,3.7-36.6,6
		c-10.3,1.9-19.9,5.7-27.9,12.9c-21.9,20-36.3,44.5-43.1,73.3c-6.9,29.7,0,56,22.2,77.3c5.4,5.2,12.4,8.8,18.9,12.6
		c10.6,6.2,11.3,12.3,2.2,20.5c-4.8,4.3-9.6,8.8-14.1,13.4c-8.5,8.5-15.7,17.9-17,30.4c-0.4,3.6-0.1,7.3-0.7,10.9
		c-2.9,16.8,0.6,32.4,9.2,47c8.4,14.3,20,24.8,36.7,28.2c12.1,2.5,24.3,4.2,36.4,6.2c11.4,1.9,22.9,1.7,33.8-2.1
		c16.7-5.8,32.3-14.2,46.4-24.9c13.3-10.1,23.4-22.5,24.5-40.2c0.2-3.8,0.9-7.6,1.6-11.4c2.3-12.5,2.6-25.1-5.1-35.8
		c-5.5-7.7-12.2-15-19.5-21.1c-13.6-11.2-13.5-18.3,2.1-26.4c10.2-5.2,18.3-12.6,24.9-21.7c9.4-12.7,16.8-26.5,14.9-43
		c-1.6-13.8-3.7-27.7-6.8-41.3c-3.8-16.9-15.2-29.7-26.1-42.3c-10.6-12.3-24-20.6-39.9-24.4C1030.1,1410,1021,1409,1011.9,1407.4z"
		/>
	<path class="st3" d="M888.8,424.7c1.5,0,3-0.1,4.5,0c5.6,0.5,9,4.7,7.1,10c-2.8,7.8-5.7,15.6-9.8,22.7
		c-12.6,22-25.8,43.6-38.7,65.4c-13.4,22.7-26.6,45.6-39.7,68.4c-30.9,53.6-61.9,107.2-92.8,160.8c-37.8,65.6-75.5,131.4-113.3,197
		c-30,52-60.1,103.8-90.2,155.8c-16.8,28.9-33.4,57.9-50.4,86.7c-2.7,4.6-6.6,8.5-10.3,12.4c-3.1,3.2-6.9,2.2-9.2-0.8
		c-3-4-5.9-8.5-7.5-13.3C411.2,1108.2,384,1026.7,357,945c-30-90.6-59.8-181.4-89.6-272.1c-8-24.4-15.8-48.9-23.3-73.5
		c-2.4-8.1-4-16.4-5.2-24.8c-1.1-7.7,3.1-13.4,10.1-16c7.1-2.7,14.6-4.3,22.1-6c21.6-4.9,43.2-9.7,64.9-14.4
		c50.9-11,101.9-21.9,152.8-32.7c40.1-8.5,80.2-17,120.3-25.3c39.6-8.1,79.2-15.8,118.8-23.9c40.5-8.3,80.9-16.9,121.4-25.2
		c13.1-2.7,26.3-4.8,39.4-7.2C888.7,424.3,888.7,424.5,888.8,424.7z M521.5,636.1c-1.5-23.1-8.6-42.8-26.3-57.4
		c-9-7.4-19.6-11.2-31.4-9.9c-13.3,1.4-25.7,6.2-37,13.2c-9.4,5.8-19.5,11.2-26.9,19.1c-9.3,9.9-16.2,22-24,33.2
		c-7.8,11.1-11.4,24.1-15.6,36.8c-2.8,8.7-7.7,15.4-16.7,18.4c-2.5,0.8-5.2,1.2-7.6,2.2c-3.1,1.4-8.2,0.7-8,5.8
		c0.2,4.9,4.7,5.8,8.4,7.2c0.9,0.4,1.9,0.7,2.9,0.8c19.4,3.7,36.1,13.1,52.2,23.9c1.4,0.9,2.8,2.4,4.2,2.5c2.8,0,6-0.2,8.3-1.5
		c1.1-0.6,1.3-4.2,0.7-6.2c-0.9-2.9-2.4-5.9-4.3-8.3c-9.8-12.7-14.1-26.8-12.4-42.8c1.7-15.6,7.1-30,14.6-43.6
		c3.4-6.1,8-10.6,14.7-12.8c6.4-2.2,12.6-4.9,19.1-6.5c10.8-2.8,21.5-3.7,30.1,5.7c7.6,8.3,13.5,17.6,17.5,28.2
		c4.4,11.5,1.5,22.7-1.7,33.6c-5.6,18.8-4.2,36.4,6.2,53.2c4.5,7.4,9.1,14.7,13.2,22.3c17.2,32.3,34.1,64.8,53.7,95.7
		c4.5,7.1,10.4,7.8,15.2,0.9c2.5-3.6,4.6-7.6,6.2-11.7c12.3-30.8,24.1-61.8,36.9-92.4c6.8-16.3,15-32,23.2-47.7
		c3.6-6.9,9.1-12.2,17.1-14.4c2.3-0.6,4.5-2.1,6.5-3.5c3.1-2.2,4.4-5.5,2.3-8.6c-1.7-2.6-4.3-5-7.1-6.4c-7.4-3.8-15.1-6.8-22.5-10.6
		c-5.3-2.7-10.2-6.5-15.6-8.9c-2.4-1.1-6.1-0.6-8.6,0.4c-1.1,0.5-1.2,4.2-1.1,6.5c0.1,1.9,0.8,4,1.6,5.7c5.8,12.1,4.2,24-1.1,35.6
		c-8.3,18.4-16.7,36.9-25.7,55c-3.5,7-8.2,13.6-13.2,19.7c-4.3,5.3-10.2,5.3-14.5,0c-15.9-19.5-30.2-40.1-37.9-64.5
		c-1.7-5.3-1.6-11.5-1.1-17.2C517.6,669.6,519.7,652.5,521.5,636.1z"/>
	<path class="st4" d="M1391.3,1571.2c5.6-3.4,11.6-6.4,16.8-10.4c14.6-11.3,31-10.9,47.8-8c6.4,1.1,13.7,9.9,14,17
		c0.7,14.5-0.3,28.9-6,42.6c-3.2,7.5-8.2,13.7-14.7,18.6c-10.2,7.6-21.2,8-31.9,0.8c-13.5-9.1-24.7-20.2-28.8-36.6
		c-1.2-4.9-1.5-10.1-2.3-15.5c-1,0.4-1.9,0.4-2.4,0.9c-6.4,6.8-13.2,13.5-13.8,23.5c-0.3,5-0.4,10.4,1.2,15
		c5.1,14.7,13.4,27.5,25.8,37.2c20,15.5,44.7,8.8,58.9-8.9c10.1-12.6,18.8-26.4,28.1-39.6c0.5-0.7,0.9-1.4,1.4-2.1
		c7.5-9.2,15-8.9,20.5,1.7c3.3,6.5,5.5,13.9,6.6,21.2c1.5,10.6-4,18.9-12.7,24.3c-14.7,9.1-29.8,17.6-44.8,26.3
		c-48.6,28-97,56.1-145.8,83.7c-39.7,22.6-79.8,44.6-119.8,66.7c-3.3,1.8-7,3.3-10.7,3.9c-6.7,1.1-9.1-1.8-6.5-7.9
		c2.5-5.9,5.5-11.9,9.3-16.9c23.3-30.7,46.9-61.1,70.4-91.6c33.2-43.1,66.1-86.4,99.7-129.2c10.6-13.4,23.2-25.2,34.3-38.3
		c6.1-7.3,11.5-15.3,16.3-23.6c13.2-22.9,30.4-42.8,46.8-63.3c15.2-19,30.1-38.3,45.1-57.4c9.9-12.6,19.7-25.4,29.8-37.9
		c7.2-9,17.2-11.6,27.5-6.3c15,7.8,29.6,16.4,44.2,25c30.3,17.8,60.5,35.6,90.7,53.7c23.7,14.2,47.3,28.5,70.8,43.1
		c7.6,4.7,11.2,13.2,0.7,20.4c-9.9,6.8-20.4,12.8-30.8,18.9c-32.6,19.1-65.3,38-98.1,57c-5.2,3-10.5,5.8-15.8,8.5
		c-1.9,1-3.9,1.8-6,2.4c-8.8,2.5-12.7,0.1-12.1-9.1c0.6-8.6-2.4-14.5-9.5-19.2c-11.2-7.6-18.6-18.9-27-29.2
		c-12.6-15.3-25.3-30.6-37.5-46.3c-5.3-6.8-9.5-14.3-14.2-21.6c-0.8-1.2-1.5-2.6-2.2-3.9c-5.7-10.6-11.7-10.5-19.9-3.9
		c-3.9,3.1-7.1,7.6-9.3,12.2c-1,2.1,0,6.9,1.8,8.5c18.9,16.2,30.8,38,46,57.2c8.8,11,18.5,21.3,27.4,32.2c6,7.4,11.9,15.1,16.5,23.5
		c5.8,10.5,4.3,16.4-4.2,24.7c-1.9,1.8-4,3.5-6.2,5c-11,7.9-21.2,3.7-22.9-9.8c-2.5-19.1-9.1-36.9-16.1-54.7
		c-4.2-10.7-11.3-19.3-21.7-24.1c-11.7-5.4-23.6-10.8-35.9-14.1c-5.9-1.6-13.5,0.4-19.7,2.7c-14.3,5.3-27.7,12.5-39.5,22.4
		c-0.5,0.4-1.2,0.7-1.5,1.3c-5.6,7.9-7.5,17.1-9.7,26.1C1390.2,1570.4,1390.8,1570.8,1391.3,1571.2z"/>
	<path class="st4" d="M1702.7,1147.3c4.2-7.2,8.1-13.1,11.3-19.4c4.6-9,9.4-17.8,17.1-24.7c7.1-6.3,15.1-10.3,24.2-12.1
		c9.5-1.9,18.3,4.5,20.7,15c1.8,8,3.6,16.1,4.8,24.2c1.7,11.9,4.2,23.9,4.1,35.8c-0.1,15-3.4,29.7-13.8,41.7
		c-7.9,9.2-16.6,11.7-27.9,7.8c-16.2-5.7-28.4-16.2-37.2-30.8c-2-3.2-4.1-6.4-7-10.8c-1.7,3.4-3.2,5.5-3.8,7.8
		c-6.1,26,0.6,47.7,21.8,64.5c5,3.9,10.1,7.8,15.5,10.8c11.9,6.6,26.2,4.6,36.3-4.5c12.8-11.4,18.8-26.4,23.1-42.4
		c2.6-9.7,4.7-19.6,7.5-29.3c0.7-2.4,3-4.4,4.5-6.5c1.5,2.3,4.1,4.5,4.4,7c1.4,10.5,2.6,21.1,3.1,31.7c0.6,13.1,0.8,26.3,0.1,39.4
		c-0.3,5.3-2.7,11-5.6,15.6c-4.2,6.7-5.4,12.9-1,19.8c6.4,9.8,8.3,20.8,8.1,32.3c-0.4,29.6-0.7,59.3-1.1,88.9c0,3.1-0.4,6.3-1.1,9.3
		c-1.8,8.2-7.6,11.2-15.4,7.6c-7-3.2-13.8-7-20.6-10.9c-43.3-25.1-86.7-50.2-129.9-75.4c-15.3-8.9-30.5-17.9-45.6-27.2
		c-5.9-3.7-11.5-7.9-16.9-12.3c-7.8-6.2-10-14.7-6.9-23.8c3.9-11.3,8.8-22.2,13.3-33.3c25.7-63.3,51.5-126.5,77.2-189.7
		c5.2-12.6,10.4-25.2,16-37.7c2.4-5.4,6.2-10.3,8.5-15.8c3-7.1,4.9-14.6,7.6-21.8c5.9-15.5,11.8-31.1,18.1-46.5
		c20.8-50.6,41.7-101.1,62.7-151.5c4.3-10.3,9.2-20.4,13.9-30.6c0.8-1.6,1.7-3.3,2.9-4.6c2-2.4,3.9-6.6,7.6-4.8
		c2.3,1.1,4,4.7,4.6,7.5c4.6,20.7,3,41.7,3.2,62.7c0.5,63.6,1.1,127.3,1.3,190.9c0,11.6-1,23.2-2.6,34.7c-0.9,6.6-6.1,8.7-12.8,7.5
		c-9.7-1.7-19.4-3.8-29.2-4.4c-14.7-0.9-27.5,4.6-38.8,14.1c-2.6,2.2-6.2,3.1-9.4,4.6c-0.3-3.6-1.2-7.3-0.8-10.8
		c1-9.8,4.8-18.6,10.5-26.6c9.9-13.8,2.5-18.8-9.4-22.1c-3.5-1-7.9,0.4-11.7,1.5c-1.4,0.4-2.9,2.9-3.1,4.6
		c-3.6,32.7-18.5,61.7-29.8,91.8c-5.2,13.8-10.1,27.8-15.4,41.6c-5.1,13-10.2,25.9-19,37c-3.2,4.1-1.3,11.5,4.1,15
		c10,6.6,21.1,4.9,22.7-10.7c1.7-16.5,9.5-30.1,18.2-43.5c0.6-1,1.5-1.8,2.3-2.6c3.3-3.4,5.8-3.1,8.1,1.2c1.1,2,1.6,4.3,2.6,6.4
		C1699.9,1142.4,1700.9,1144.1,1702.7,1147.3z"/>
	<path class="st4" d="M478.2,1503.9c17.7,2.3,35.5,4.7,53.2,6.8c3.1,0.4,6.3-0.3,9.4-0.4c-2-2.4-3.5-5.4-6-7.1
		c-12.8-9.2-27.8-13.6-42.7-17.9c-19.5-5.6-39.5-7.4-59.7-5.4c-14,1.3-27.5,4.4-40.3,10.7c-10.7,5.2-18.4,12.8-23.4,23.4
		c-2.9,6.3-5.4,12.8-7.8,19.3c-3.2,8.6-8.1,11.4-16.5,7.5c-10.9-5.1-21.4-11.1-31.9-17c-15.9-9.1-31.6-18.4-47.3-27.8
		c-2.6-1.6-5-3.9-7-6.3c-3.7-4.4-2.9-10.8,3-15.7c9.7-8.1,19.7-15.7,29.9-23.2c34.9-25.5,69.8-50.9,105-76
		c9.8-7,20.6-12.8,31.2-18.6c6.6-3.6,13.7-2,19,2.7c7.5,6.8,14.2,14.4,20.9,21.9c8.6,9.5,16.9,19.3,25.2,29
		c14.3,16.6,28.7,33.2,43,49.9c11.9,13.9,23.8,27.8,35.7,41.7c13.5,15.8,26.1,32.4,40.8,47c17.8,17.7,31.2,38.8,47.3,57.7
		c4.5,5.3,8.9,10.8,14.1,15.4c15.1,13.3,26.8,29.6,39.8,44.7c12.5,14.7,25.1,29.3,37.7,43.9c19,22,38.2,43.9,57,66.2
		c5.5,6.6,10,14,15,21.1c0.8,1.1,1.6,2.3,1.7,3.5c0.2,2.2,0.6,5-0.5,6.5c-0.8,1.1-4.2,1.4-5.9,0.7c-11.9-5.1-24-9.9-35.4-16.1
		c-28.7-15.4-57.2-31.3-85.6-47.4c-41.9-23.8-83.6-47.9-125.3-71.9c-4.1-2.4-7.9-5.5-11.3-8.7c-4.6-4.3-4.2-9.4,1.4-12.2
		c4.3-2.2,9.4-3,14.1-4.3c10-2.7,19.9-5.7,30-8c11.3-2.6,22.8-4.4,34.2-6.6c1.5-0.3,2.9-0.6,4.4-0.9c7.8-2,10.3-7.9,6.5-15
		c-6-11.1-14.4-13.4-26.1-6.9c-17.2,9.5-35.8,11.7-54.9,10.9c-5.1-0.2-6-2.2-3-6.3c4.2-5.6,8.6-11.1,13.7-15.8
		c11.5-10.6,15.8-23.5,13.8-38.6c-1.5-11.3-7.9-19.5-18.2-24.4c-4.6-2.1-8-0.1-7.5,5c1.9,18.8-8.2,30.1-22.9,39.2
		c-23.6,14.6-49.8,17.8-76.5,16.2c-23.6-1.4-45.3-10.2-65.6-22.3c-7.8-4.6-12.3-12-14.9-20.4c-3.2-10,1.9-21.2,11.3-26.1
		c8.9-4.6,17.7-9.5,26.6-14.2c10.8-5.6,22.7-6.3,34.4-7.2c5.5-0.4,11-0.1,16.5-0.1C478.1,1505.2,478.1,1504.6,478.2,1503.9z"/>
	<path class="st4" d="M969.5,168.8c-2.3,18.5-5,39.8-7.5,61.1c-2.1,18.2-4,36.5-6.1,54.7c-1.5,12.8-3.1,25.7-4.8,38.5
		c-1.7,13.2-9.6,20.7-22.3,23.6c-34,7.6-68,15.3-102.1,22.8c-31.4,6.9-62.9,13.7-94.4,20.5c-35.6,7.7-71.2,15.4-106.8,22.9
		c-39.9,8.4-79.8,16.7-119.8,24.9c-22.6,4.6-45.2,9.2-67.9,13.4c-7.5,1.4-15.2,1.5-22.9,1.6c-2.3,0-4.7-1.7-7-2.6
		c1.1-2.3,1.7-5.4,3.5-6.8c7.2-5.6,14.4-11.4,22.2-16c49.3-29,98.7-57.7,148.2-86.4c13.5-7.8,27.3-15.1,41.2-22.3
		c10-5.1,16.6-1.6,16.5,9.6c0,8.6-2.2,17.3-3.5,25.9c-0.2,1.1-0.7,2.2-1,3.3c-5,17,4.7,21.1,18.7,18.7c10.9-1.9,13.5-6,14-17.7
		c0.8-20.5,4.8-40.4,9.2-60.3c2.6-11.9,11.7-18.2,21.5-23.9c8.1-4.8,16-6.2,24.2-0.7c8.9,5.9,9.5,11.1,1.7,18.3
		c-4.6,4.3-10,7.8-14.8,11.9c-5.5,4.7-10.2,9.9-11.7,17.4c-2.1,10.8,1.2,20.2,8.8,27.5c13,12.4,28.6,17.5,46.5,14.2
		c0.3-0.1,0.7,0,1-0.1c2.7-1.6,5.5-3.3,8.2-4.9c-1.8-2.4-3.3-5.1-5.5-7.2c-3.8-3.7-8.4-6.6-12-10.4c-10.2-10.9-11.3-20.4-1.1-30.4
		c15-14.8,33.5-20,54.4-16.7c9,1.4,20.2,11.2,17.5,21.7c-1.5,5.8-5.5,11.1-9.2,16c-4.8,6.3-10.6,11.9-15.7,18
		c-2.9,3.5-1.9,6,2.6,7.2c10.2,2.6,19.3-1,27.8-6c12.5-7.3,22.9-16.9,31.2-28.7c9.7-13.7,7.7-25.5-4.5-35.7
		c-2.2-1.8-4.1-3.9-6.1-5.9c-3.7-3.8-4.1-7.4-0.6-11.4c3.3-3.8,7.1-7,10.5-10.7c7.1-7.5,10.6-16.2,6.9-26.3
		c-2.6-7-8.8-11.1-15.4-14.1c-3.9-1.8-8-3-11.9-4.7c-5.4-2.2-6.7-7.1-2.3-10.8c5.8-4.9,11.9-9.5,18.4-13.4
		c29.7-17.4,59.5-34.6,89.4-51.5c5.4-3,11.6-4.7,17.4-7c5.6-2.2,13.2,2.5,13.8,9.1C968.6,147.7,968.9,156.8,969.5,168.8z"/>
	<path class="st4" d="M1183.6,295.9c0.1-1.2,0.2-1.4,0.1-1.5c-6.8-13.6-1.6-16.7,8.2-22.8c13.5-8.3,27.4-16.1,41.5-23.2
		c5.8-2.9,12.7-4.3,19.2-4.7c12.6-0.8,18.7,7,16,19.3c-4.5,20.7-16,31.5-37.1,34.7c-2,0.3-3.9,0.8-6.9,1.4c2.8,2,4.8,3.6,6.9,5.1
		c9.5,6.8,12.7,15.2,8.1,25.8c-4.7,10.9-10.9,21.2-16.1,31.9c-1.4,2.8-2.6,6.1-2.6,9.2c0,7.7,0.3,7.7-7.3,8.2
		c-14.3,1-28.5,0.1-42.6-2.7c-20.7-4.1-41.5-7.8-62.2-11.9c-23.3-4.6-46.5-9.2-69.7-14.1c-15-3.2-20.6-9.7-21.2-25.3
		c-0.3-7.4,0.6-14.9,1.2-22.4c0.8-10.9,1.7-21.8,2.7-32.7c1.2-13,2.6-26,3.8-39c1.1-11,2-22.1,3.2-33.1c1.1-10.9,2.6-21.7,3.6-32.5
		c0.7-7.3,0.8-14.6,1.5-21.9c0.3-3.6,1.1-7.3,2.2-10.7c2.9-9.1,9.5-12.4,18.2-8.4c9.3,4.3,18.2,9.3,27.2,14.2
		c36.2,19.9,72.4,39.8,108.4,59.9c10.8,6.1,21.1,13.1,31.6,19.8c1.8,1.1,3.5,2.6,4.9,4.1c4.2,4.4,4.3,10.6-0.5,14.4
		c-3.6,2.8-7.8,5.4-12.2,6.4c-16.2,3.8-30.5,11.6-44.9,19.3c-8.9,4.8-18,9.4-26.7,14.4c-3.7,2.1-7,5-10,8
		c-4.5,4.6-3.5,10.5,2.4,13.4c3.5,1.7,7.3,3,11.2,3.4C1159.1,303.7,1171.5,299.5,1183.6,295.9z"/>
	<path class="st4" d="M216.8,1361.1c0-10.3-0.1-20.6,0-31c0.1-9.3,4.4-16.6,11-22.7c10.7-10.1,23-17.9,35.9-24.7
		c14.1-7.3,29.1-13.2,42.5-21.6c12.5-7.8,25.3-13.7,39.4-17.4c7.5-2,10.2-5.6,8.8-13.2c-1.3-6.9-4.3-13.5-7-20
		c-0.6-1.4-3.5-2.5-5.3-2.4c-2.5,0.1-5.2,1.2-7.5,2.4c-15.9,8.1-31.7,16.4-47.5,24.6c-14.4,7.5-28.6,15.4-43,22.7
		c-4.3,2.2-9.1,4-13.9,4.8c-6.7,1.1-10.8-1.8-12.3-8.5c-3.4-15.6-3.6-31,4.6-45.5c3.1-5.5,4.1-11.3,0.2-16.9
		c-5.1-7.3-6.6-15.7-6.5-24.2c0.2-14.6,0.7-29.3,1.8-43.8c0.2-3,3.1-7.2,5.7-8.3c2.1-0.8,6.3,1.8,8.6,3.9c2.6,2.4,4.5,5.8,6,9.1
		c5.2,11.2,13.6,19.1,25.1,23.3c19.3,7.1,38.5,14.1,57.9,21c2,0.7,4.2,0.8,6.3,0.8c6.5,0.1,10.2-3.4,8.8-9.6
		c-2.5-11.4-4.7-23.1-9.3-33.8c-8.1-19.1-14.7-38.7-20.3-58.6c-3.2-11.4-4.7-23.1-2.1-34.9c0.6-2.5,2.7-6.7,3.9-6.6
		c2.7,0.2,6.4,1.8,7.7,4.1c3.7,6.4,7,13.2,9.3,20.3c13.2,40.6,26.3,81.2,39.1,121.9c9.6,30.5,18.9,61,28.3,91.6
		c0.4,1.3,0.6,2.6,0.9,3.9c4,14.8-0.7,26.3-13.1,35.2c-17.1,12.4-33.7,25.5-50.8,37.9c-25.4,18.4-51,36.5-76.6,54.6
		c-4.8,3.4-10,6.6-15.3,9.1c-10.7,5.1-19.5,0-20.4-11.7c-0.9-11.9-1.6-23.9-2.3-35.8C216,1361.1,216.4,1361.1,216.8,1361.1z"/>
	<path class="st4" d="M1313.1,272.3c6,2.6,12.1,4.4,17.4,7.5c31,17.9,61.8,36.1,92.7,54.2c34.3,20.1,68.6,40,102.7,60.2
		c24.7,14.6,49.2,29.5,73.6,44.5c3.9,2.4,7.4,5.6,10.7,8.9c1.4,1.3,2.7,3.9,2.3,5.4c-0.4,1.3-3.3,2.7-5.1,2.6
		c-9.6-0.4-19.2-0.6-28.6-2.2c-22.2-3.8-44.2-8.4-66.3-12.6c-22.9-4.4-45.7-8.8-68.6-12.9c-26.9-4.9-53.8-9.4-80.6-14.3
		c-23.6-4.4-47.2-8.7-70.6-14c-9.8-2.2-19-6.5-28.5-10c-3.1-1.1-4.2-3.5-0.8-5.3c8.3-4.4,11.6-10.6,9.5-20
		c-2.5-11.4,1.3-21.7,6.5-31.6c6.9-13.2,12.4-26.8,16-41.3c1.3-5.2,4.9-10.1,8.4-14.3C1305.6,274.9,1309.5,274.1,1313.1,272.3z"/>
	<path class="st4" d="M307.8,1002.7c-0.1,13.6-2.7,16.5-12.1,19.2c-5.4,1.6-10.6,4.2-15.7,6.8c-4,2.1-4.8,5.8-2.8,9.8
		c1.4,2.8,2.9,5.8,5.2,7.8c8.5,7.4,12.6,17,15.1,27.5c2.7,11.2,5.5,22.5,7.8,33.8c0.8,3.7,0.8,7.6,0.5,11.4
		c-0.7,8.3-7.2,12.8-15.4,11.3c-19.3-3.3-34.2-12.4-43.8-30.4c-5.6-10.6-13.1-20.2-20.6-29.6c-6.5-8.2-10.2-17.2-10.1-27.5
		c0.1-17.3,0.9-34.6,0.8-52c-0.2-58.8-0.8-117.6-0.7-176.5c0-12.2,1.6-24.5,3-36.7c0.4-3.1,2.9-5.9,4.4-8.9c2.6,2.3,6.3,4.2,7.6,7.1
		c5.7,13.8,11.1,27.8,15.9,41.9c18.8,55.2,37.4,110.4,56,165.7C305.3,990.9,306.8,998.6,307.8,1002.7z"/>
	<path class="st4" d="M800.3,226.7c9,0,14.7,3.6,17.8,11.4c3,7.3,1.2,16-5.1,21.3c-10.8,9.1-23.2,14.4-37.7,12.4
		c-6.9-0.9-12.1-4.6-14.4-11.4c-2.4-7.1-1.4-13.7,4.1-19.3C772.8,233,788.2,226.7,800.3,226.7z"/>
	<path class="st5" d="M887.2,1061.1c9.1-0.7,19.4-1.4,29.7-2.3c9.2-0.8,16.7-4.9,23.2-11.4c2.8-2.8,6.7-4.8,10.2-6.8
		c2.6-1.5,4.7-0.2,5.5,2.4c1,3.1,2,6.5,2,9.7c0,12.1-0.5,24.3-0.8,36.4c0,1.2,0.1,2.3-0.1,3.5c-0.9,6.6-6.7,9.1-12,5
		c-7.2-5.5-14.8-10.1-23.8-11.5c-4.4-0.7-8.9-1.4-13.3-1.3c-23.3,0.2-46.7,0.1-70,1.1c-17.6,0.8-35.1,3.4-52.6,4.5
		c-7.9,0.5-16-0.3-23.9-1.2c-5.2-0.6-7.6-6.7-4.7-11c24.8-37.8,49.7-75.7,74.6-113.4c8-12.1,18.9-19.7,33.4-22.2
		c3.9-0.7,7.8-1.9,11.7-2.7c22.2-4.5,34.1-19.4,40.1-39.9c2.1-7.2,1-14.3-2.9-21.1c-16.7-28.8-36.2-35.5-69.9-26.8
		c-10.8,2.8-20.9,7.4-28.9,15.4c-4.3,4.2-7.1,9.9-10.9,14.6c-2.6,3.2-5.6,6.3-8.9,8.8c-2.2,1.8-4.8,0.7-5.4-2.1
		c-0.8-4.4-1.8-9.1-1.4-13.5c1.7-17.1,0.7-34.1-2.2-51c-0.6-3.6,0.8-7.5,1.3-11.3c3.2,1.8,7.2,2.9,9.4,5.5c9,10.3,20,13.3,32.9,10.5
		c17.6-3.9,34.7,0,52.1,2.3c27.1,3.6,47.1,18.8,65.7,36.8c4.7,4.5,7.8,11,10.6,17.1c2.8,6,4.1,12.6,6.4,18.9c2,5.4,4.6,6.1,8.8,2.1
		c5-4.8,10.1-9.8,14.1-15.5c14.5-20.1,33.9-34.3,55-46.4c21.5-12.3,44.4-20.7,69.2-21.7c24.1-1,48.3,0.4,68.2,16.3
		c12.8,10.3,24.3,22.1,36.1,33.5c5.7,5.5,11,11.6,16.1,17.8c4.8,5.7,6.8,12.5,7.4,20.1c0.8,9.9,3.4,19.7,3.9,29.6
		c0.5,9.9,0,19.9-1,29.8c-1,9.5-2.6,19.1-5.2,28.3c-4,14.1-12.8,25.7-21.9,36.9c-11.3,14-24.7,26-39,37
		c-9.5,7.3-20.1,11.7-32.1,10.8c-16.4-1.2-32.1,2.3-47.9,5.5c-15.5,3.2-31.1,2.3-46.1-2.6c-5.1-1.6-9.8-4.7-14.3-7.7
		c-7.4-4.7-14.3-10.3-21.9-14.7c-6.8-3.9-12.4-8.9-16.4-15.5c-7.8-13-15.6-26-23.1-39.1c-8.1-14.1-10-29.4-7.2-45.3
		c1.8-10.2,0.3-20.1-2.8-29.9c-1.6-5-4.3-5.6-8.4-2.2c-0.6,0.5-1.3,1.1-1.8,1.7c-14.8,17.9-34.5,27.7-56.5,33.8
		c-4,1.1-7.9,2.6-11.9,3.8c-15.6,4.6-27.2,14.1-35.4,28.2c-6,10.4-12.8,20.4-19,30.8c-2.3,3.8-4.1,8-5.5,12.2
		c-2.1,6.2-0.2,10.8,6,13.2c4.8,1.9,10.1,3.2,15.3,3.6C860,1059.8,873,1060.3,887.2,1061.1z M1018.3,963.3c1.3,8.1,1.2,16.5,4,23.7
		c7.2,18.1,15.1,35.9,23.9,53.3c3.3,6.5,9.2,12.4,15.3,16.6c14.8,10.4,32.2,15.1,49.7,19.1c5.4,1.2,10.4,0,14.7-3.1
		c12-8.8,24.5-17,34.2-28.6c8.5-10.2,16.1-20.7,19.7-33.8c3.2-11.6,6.1-23.3,9.7-34.7c4.6-14.9,4.5-29.2-2-43.7
		c-5.7-12.6-10.7-25.6-11.1-39.8c-0.4-14-7.6-24.1-19.4-30.5c-11.8-6.3-24.1-11.7-36.4-17.1c-10.8-4.7-21.8-4.7-31.7,1.8
		c-12.4,8.1-24.4,16.7-35.9,25.9c-15.2,12-23.5,28.7-27.6,47.2C1022,933.8,1020.6,948.6,1018.3,963.3z"/>
	<path d="M1420.9,676.9c17.1,1.9,34.2,3.6,51.2,5.8c13.5,1.7,27,3.2,40.2,6.2c12.3,2.8,24.3,7.2,36.1,11.6c14,5.3,28.6,6.9,43.2,9.2
		c10.1,1.6,18.3,6.1,23.8,15c9.2,14.9,18.5,29.8,27.7,44.8c1.2,2,2.5,4,3.4,6.1c3.5,8.3-0.2,13.7-9.1,11.8c-13.9-3-26.1,0.8-38.6,6
		c-30.9,12.8-59.3,29.9-86.5,49.1c-4.9,3.5-10.5,6.3-16.1,8.4c-17.4,6.6-33.4,15.7-48.6,26.3c-9.8,6.9-17.3,15.5-19.9,27.7
		c-1.6,7.5-9.3,12.6-16.8,4.9c-2.9-2.9-5.5-6.2-7.5-9.8c-6.9-12.2-13.7-24.6-20.2-37c-2-3.9-3.3-8.3-4.7-12.5
		c-1.4-4,0.7-6.2,4.5-6.4c2.6-0.2,5.3,0.1,7.7,1c9.1,3.3,17.7,2,26-2.3c12.8-6.6,25.5-13.2,38-20.2c4.6-2.6,8.9-5.8,12.8-9.3
		c6.7-6,7.1-13.7,3.9-21.4c-10.5-25.1-26.1-46.4-47.6-63.4c-11.7-9.3-20.3-21.2-23.9-36.1c-1.8-7.6,3.4-14.1,11.4-14.5
		c3.2-0.2,6.3,0,9.5,0C1420.8,677.5,1420.8,677.2,1420.9,676.9z M1509.3,789c1.8-0.4,4.2-0.9,6.5-1.6c24.2-7.8,44.4-22.6,65-36.8
		c7.5-5.2,7-11.2-0.7-16c-2.1-1.3-4.5-2.2-6.8-3c-5.5-1.8-10.9-3.7-16.6-4.9c-17.4-3.5-34.9-6.9-52.4-10
		c-13.7-2.4-27.4-4.5-41.1-6.6c-4.5-0.7-9.1-0.5-12.4,3.2c-3.5,3.9-1.5,8.3,0.4,12c1.7,3.3,3.9,6.7,6.7,9.1
		c10.5,9,18.5,19.8,24.6,32.1c2.1,4.3,4.9,8.3,7.9,12C1495.1,784.3,1501,788.2,1509.3,789z"/>
	<path d="M1266.9,661.4c0.9-0.8,2.2-2.4,3.7-2.8c4.3-1.1,8.9-1.5,13.2-2.5c20.8-4.8,40.3-12.8,57.2-26.1
		c11.2-8.8,23.4-15.2,36.3-20.9c10.6-4.6,20.6-10.6,30.6-16.4c14.8-8.4,29.3-17.4,44.1-25.7c10.3-5.7,19-12.5,23.7-23.9
		c2.9-6.9,5.3-7.6,11.6-3.8c13.7,8.2,25.7,18.4,33.7,32.5c4.7,8.3,1,15.2-8.4,15.6c-13.8,0.6-25.8,6-37.5,12.6
		c-35.6,20.4-71,41-106.7,61.2c-11.9,6.7-24.3,12.6-36.7,18.6c-10.2,4.9-18.2,12.2-25.1,20.9c-2.1,2.6-4.4,5-6.4,7.6
		c-2.7,3.4-5.7,3.1-8.6,0.7c-2-1.7-4.3-3.5-5.5-5.7c-6.2-11.8-12.1-23.8-18-35.8C1267.5,666,1267.5,664.3,1266.9,661.4z"/>
	<path d="M1011.9,1407.4c9,1.5,18.1,2.6,27,4.7c15.8,3.8,29.2,12.1,39.9,24.4c11,12.7,22.3,25.5,26.1,42.3
		c3.1,13.6,5.1,27.4,6.8,41.3c1.9,16.5-5.5,30.3-14.9,43c-6.6,9-14.7,16.5-24.9,21.7c-15.7,8-15.7,15.1-2.1,26.4
		c7.3,6.1,14,13.3,19.5,21.1c7.7,10.7,7.4,23.3,5.1,35.8c-0.7,3.8-1.4,7.6-1.6,11.4c-1.1,17.7-11.2,30.1-24.5,40.2
		c-14.1,10.7-29.7,19-46.4,24.9c-10.9,3.8-22.4,4.1-33.8,2.1c-12.1-2.1-24.3-3.8-36.4-6.2c-16.7-3.4-28.3-13.9-36.7-28.2
		c-8.5-14.5-12-30.1-9.2-47c0.6-3.6,0.4-7.3,0.7-10.9c1.3-12.5,8.5-21.9,17-30.4c4.6-4.6,9.3-9,14.1-13.4c9.1-8.2,8.3-14.3-2.2-20.5
		c-6.5-3.8-13.5-7.4-18.9-12.6c-22.2-21.3-29.1-47.6-22.2-77.3c6.7-28.8,21.2-53.3,43.1-73.3c7.9-7.3,17.6-11,27.9-12.9
		c12.2-2.3,24.4-4.2,36.6-6c3.3-0.5,6.7-0.1,10-0.1C1011.9,1407.7,1011.9,1407.6,1011.9,1407.4z M998.3,1569.1
		c5.1-0.4,10.2-0.8,15.3-1.3c10.3-1,19.2-4.6,26.4-12.4c9.7-10.5,16.2-22.9,20.8-36.2c1.4-4,1.6-9.1,0.4-13.2
		c-2.5-8.5-5.7-17-9.7-25c-6.8-13.8-15.3-26.5-26.8-37c-15.4-14.2-42.6-11.5-52,7.9c-1.6,3.4-3.7,6.6-5.7,9.8
		c-6.4,10.8-13.4,21.4-19.1,32.6c-2.3,4.6-3.2,10.6-2.6,15.8c0.9,8.1,3,16.2,5.6,23.9C958.5,1556.3,973.8,1570.8,998.3,1569.1z
		 M1045,1673.3c-1.4-9.3-1.9-18.8-4.2-27.8c-6.5-26.1-23.8-31.7-45.2-28.2c-27.3,4.5-42.8,39.6-39.2,59.1
		c2.7,14.6,10.2,26.2,20.6,36.2c10.2,9.8,21.9,11.6,34.7,5.3c3.9-1.9,7.8-3.8,11.5-5.9C1038.3,1703.6,1046.3,1691.2,1045,1673.3z"/>
	<path d="M521.5,636.1c-1.8,16.4-3.8,33.5-5.3,50.6c-0.5,5.7-0.6,11.9,1.1,17.2c7.7,24.3,22,44.9,37.9,64.5c4.3,5.3,10.2,5.3,14.5,0
		c5-6.1,9.7-12.7,13.2-19.7c9-18.1,17.3-36.6,25.7-55c5.3-11.6,6.9-23.5,1.1-35.6c-0.8-1.8-1.6-3.8-1.6-5.7c-0.1-2.3,0-6,1.1-6.5
		c2.5-1.1,6.2-1.5,8.6-0.4c5.4,2.4,10.3,6.2,15.6,8.9c7.4,3.7,15.2,6.8,22.5,10.6c2.8,1.4,5.4,3.8,7.1,6.4c2.1,3.2,0.8,6.5-2.3,8.6
		c-2,1.4-4.2,2.9-6.5,3.5c-8,2.2-13.5,7.5-17.1,14.4c-8.1,15.7-16.3,31.4-23.2,47.7c-12.8,30.6-24.6,61.6-36.9,92.4
		c-1.6,4.1-3.7,8.1-6.2,11.7c-4.9,7-10.7,6.3-15.2-0.9c-19.7-30.9-36.5-63.4-53.7-95.7c-4.1-7.6-8.6-14.9-13.2-22.3
		c-10.3-16.8-11.7-34.4-6.2-53.2c3.2-10.9,6.2-22,1.7-33.6c-4.1-10.6-9.9-19.9-17.5-28.2c-8.6-9.4-19.3-8.5-30.1-5.7
		c-6.5,1.7-12.7,4.3-19.1,6.5c-6.6,2.3-11.3,6.8-14.7,12.8c-7.5,13.7-12.9,28-14.6,43.6c-1.7,15.9,2.6,30.1,12.4,42.8
		c1.9,2.4,3.4,5.3,4.3,8.3c0.6,1.9,0.4,5.5-0.7,6.2c-2.3,1.3-5.5,1.5-8.3,1.5c-1.4,0-2.9-1.5-4.2-2.5
		c-16.1-10.8-32.8-20.2-52.2-23.9c-1-0.2-1.9-0.5-2.9-0.8c-3.7-1.4-8.3-2.3-8.4-7.2c-0.2-5.1,4.9-4.5,8-5.8c2.4-1.1,5.1-1.4,7.6-2.2
		c9-3,13.8-9.7,16.7-18.4c4.1-12.7,7.8-25.6,15.6-36.8c7.8-11.2,14.7-23.4,24-33.2c7.4-7.8,17.5-13.3,26.9-19.1
		c11.3-7,23.7-11.8,37-13.2c11.8-1.3,22.4,2.5,31.4,9.9C512.9,593.3,519.9,613.1,521.5,636.1z"/>
	<path class="st2" d="M1509.3,789c-8.3-0.8-14.1-4.7-18.7-10.4c-3-3.7-5.8-7.8-7.9-12c-6.2-12.3-14.2-23.1-24.6-32.1
		c-2.8-2.4-5-5.8-6.7-9.1c-1.9-3.7-3.9-8.1-0.4-12c3.3-3.7,7.9-3.9,12.4-3.2c13.7,2.1,27.5,4.1,41.1,6.6c17.5,3.1,35,6.5,52.4,10
		c5.6,1.1,11.1,3.1,16.6,4.9c2.4,0.8,4.7,1.7,6.8,3c7.7,4.8,8.2,10.8,0.7,16c-20.6,14.2-40.8,29-65,36.8
		C1513.4,788.1,1511,788.6,1509.3,789z"/>
	<path class="st2" d="M998.3,1569.1c-24.5,1.7-39.8-12.8-47.3-35c-2.6-7.7-4.7-15.8-5.6-23.9c-0.6-5.2,0.3-11.2,2.6-15.8
		c5.7-11.2,12.6-21.8,19.1-32.6c1.9-3.3,4-6.4,5.7-9.8c9.4-19.4,36.5-22.1,52-7.9c11.5,10.5,19.9,23.3,26.8,37c4,8,7.2,16.4,9.7,25
		c1.2,4,1,9.1-0.4,13.2c-4.5,13.4-11.1,25.7-20.8,36.2c-7.1,7.8-16.1,11.4-26.4,12.4C1008.5,1568.3,1003.4,1568.7,998.3,1569.1z"/>
	<path class="st2" d="M1045,1673.3c1.3,17.9-6.8,30.2-21.8,38.7c-3.8,2.1-7.7,4-11.5,5.9c-12.8,6.3-24.5,4.5-34.7-5.3
		c-10.4-10-17.8-21.6-20.6-36.2c-3.7-19.5,11.9-54.6,39.2-59.1c21.4-3.5,38.7,2,45.2,28.2C1043.1,1654.6,1043.7,1664,1045,1673.3z"
		/>
	<path d="M966.6,660.3c1,0,2,0,3,0c0,0.2-0.1,0.5-0.1,0.7c0.4,1.6,1,3.3,1.2,4.9c1.4,10.2,2.7,20.4,4.1,30.5
		c1.4,10.9,2.9,21.9,4.3,32.8c0.6,4.2,1.3,4.8,5.5,5.1c10.8,0.8,21.4,2.3,31.9,4.7c11.4,2.5,22.4,6.1,33.2,10.4
		c20.4,8.2,39,19.6,55.8,33.9c16.2,13.8,30.1,29.5,41.6,47.4c11.6,18.1,20.1,37.7,25.7,58.4c3.4,12.6,5.7,25.4,6.6,38.5
		c0,0.3,0.1,0.5,0.1,0.8c0.3,1.7,1.2,2.9,2.9,3.3c1,0.2,2.1,0.4,3.2,0.6c6.4,0.7,12.9,1.4,19.3,2.2c12.8,1.5,25.7,3,38.5,4.5
		c3.3,0.4,6.5,1.1,9.8,1.6c0,1.1,0,2.3,0,3.4c-0.3,0-0.6-0.1-0.8-0.1c-1.7,0.4-3.3,0.9-5,1.1c-10.4,1.4-20.9,2.8-31.3,4.2
		c-10.7,1.4-21.4,2.8-32.1,4.2c-3.3,0.4-4.2,1.4-4.5,4.7c-0.3,3.6-0.6,7.3-1,10.9c-0.8,6.8-1.9,13.5-3.3,20.1
		c-2.5,11.5-6,22.8-10.4,33.8c-9.7,24.3-23.7,46-41.6,65.1c-8.7,9.2-18,17.6-28.2,25.2c-21.6,16-45.4,27.4-71.4,34.1
		c-12.3,3.2-24.7,5.4-37.4,6.4c-3,0.2-4.1,1.2-4.5,4.3c-0.4,2.7-0.8,5.5-1.1,8.3c-0.5,4.6-0.8,9.2-1.3,13.7c-1.3,11-2.6,22-3.9,33
		c-0.6,4.8-0.7,9.7-2.3,14.3c0,0.1,0.1,0.2,0.2,0.3c-1.1,0-2.3,0-3.4,0c0-0.4,0.1-0.8,0-1.2c-0.3-1.5-0.8-3.1-1-4.6
		c-0.5-2.9-0.8-5.7-1.2-8.6c-2.1-16.1-4.2-32.2-6.4-48.4c-0.3-2.6-0.6-5.1-1.1-7.7c-0.4-2.2-1.4-3-3.5-3.3c-0.5-0.1-1-0.1-1.5-0.1
		c-3-0.3-6-0.4-9-0.8c-6.9-0.9-13.9-1.8-20.7-3.3c-11.8-2.6-23.3-6-34.5-10.5c-31.3-12.6-58-31.8-80.2-57.3
		c-11.2-12.9-20.7-27-28.5-42.2c-4.9-9.5-8.7-19.4-12.2-29.5c-3-8.6-5.2-17.4-6.8-26.3c-1.4-7.7-2.8-15.4-3.1-23.2
		c0-0.3-0.1-0.6-0.1-0.9c-0.2-1.7-1.1-2.8-2.8-3.2c-0.8-0.2-1.6-0.4-2.4-0.5c-7.4-0.8-14.8-1.6-22.2-2.5c-11.2-1.3-22.4-2.6-33.6-4
		c-4.4-0.5-8.8-0.6-13-2.3c-0.1,0-0.2,0.1-0.3,0.1c0-1,0-2,0-3c0.3,0,0.7,0.1,1,0c1.6-0.4,3.1-0.9,4.8-1.2
		c10.2-1.4,20.4-2.7,30.5-4.1c11.2-1.5,22.4-2.9,33.5-4.4c3.2-0.4,4-1.4,4.3-4.6c0.5-5,0.9-9.9,1.5-14.8c1.5-12,4.3-23.7,7.9-35.2
		c4-12.7,9.1-25,15.5-36.7c13.6-24.8,31.4-46,53.4-63.6c28.6-22.9,61.1-37.1,97.2-43.1c5.5-0.9,11-1.6,16.5-2.1
		c4.3-0.4,5.3-1.1,5.8-5.4c1.2-10,2.3-19.9,3.4-29.9c1.2-10.1,2.3-20.3,3.6-30.4C965.3,666,966,663.2,966.6,660.3z M905.7,866.9
		c0.1,0,0.2,0.1,0.3,0.1c0,1,0.8,1,1.4,1.2c0.1,0.9,0.8,1,1.5,1.1c0.1,0.9,0.8,1,1.5,1.1c0.1,0.9,0.8,1,1.5,1.1c0.1,0.7,0.5,1,1.3,1
		c0.1,0.1,0.2,0.1,0.3,0.1c0,0.8,0.5,1.1,1.2,1c0.1,0.1,0.2,0.1,0.3,0.1c0,0.8,0.5,1.1,1.2,1c0.1,0.1,0.2,0.1,0.3,0.2
		c0.1,0.5,0.3,1,1,0.8c0.2,0.1,0.4,0.2,0.5,0.3c0.1,0.7,0.5,1.1,1.2,1c0.1,0.1,0.2,0.1,0.3,0.1c0,0.8,0.5,1.1,1.2,1
		c0.1,0.1,0.2,0.1,0.3,0.1c0,0.8,0.5,1.1,1.2,1c0.1,0.1,0.2,0.1,0.3,0.1c0.1,0.7,0.5,1.1,1.2,1c0.1,0.1,0.2,0.1,0.3,0.1
		c0.1,0.7,0.5,1.1,1.2,1c0.1,0.1,0.2,0.1,0.3,0.1c0.1,0.7,0.5,1.1,1.3,1c0.1,0.1,0.2,0.1,0.3,0.1c0.1,0.7,0.5,1.1,1.2,1
		c0.1,0.1,0.2,0.1,0.3,0.2c0.1,0.5,0.3,1,1,0.8c0.2,0.1,0.4,0.2,0.5,0.3c0.1,0.9,0.8,1,1.5,1.2c0.8,1.3,2.2,2,3.4,2.8
		c0.1,0.1,0.5-0.2,0.7-0.3c-0.1,0.1-0.1,0.2,0,0.3c0.5,0.9,0.7,0.9,1.3,0.2c1.1-0.3,1.9-0.9,1.6-2.2c0.2-1.2,0.5-2.4,0.7-3.6
		c0.2-0.4,0.4-0.7,0.5-1.1c0.4-3.1,0.8-6.1,1.1-9.2c1.1-9.6,2.3-19.1,3.4-28.7c0.3-2.7,0.3-5.5,0.4-8.3c0.1-0.9,0.2-1.7,0.4-2.6
		c0.3-1.4,0.7-2.8,1-4.2c0.3-2.2,0.6-4.4,0.8-6.6c0.9-7.7,1.9-15.4,2.8-23.1c1-8.3,1.9-16.5,2.9-24.8c0.5-4.4,1.1-8.7,1.6-13.1
		c0.3-3.1-0.8-4.2-3.9-4c-2.1,0.1-4.3,0.5-6.4,0.8c-4.2,0.6-8.4,1.2-12.5,2c-9.4,2-18.7,4.8-27.7,8.1c-15.2,5.5-29.3,13.2-42.5,22.5
		c-0.3,0.2-0.5,0.6-0.8,0.9c-0.1,0.1-0.2,0.1-0.2,0.2c-1.2,0.8-2.5,1.5-3.7,2.4c-0.8,0.6-1.4,1.3-2.1,2l0,0
		c-0.3,0.1-0.6,0.1-0.8,0.3c-2.6,2.2-5.2,4.3-7.8,6.5c-0.2,0.2-0.3,0.5-0.4,0.8c-0.3,0.2-0.5,0.5-0.8,0.7c-2.2,1.2-3.8,3-5.2,4.9
		c-1.1,1.1-2.3,2.3-3.4,3.4c-1.1,1-2.3,2-3.3,3.1c-0.5,0.5-0.8,1.2-1.2,1.8c-0.2,0.3-0.5,0.5-0.7,0.8c-1.1,0.6-1.9,1.4-2.3,2.6l0,0
		c-1,0.5-1.8,1.3-2.1,2.4c-0.2,0.2-0.4,0.4-0.5,0.6c-0.8,0.3-1.3,0.8-1.4,1.6c-0.2,0.2-0.3,0.4-0.5,0.6c-0.7,0.2-1,0.6-1,1.3
		c-0.1,0.1-0.1,0.2-0.2,0.2c-0.1,0-0.3,0-0.3,0.1c-2,2.7-4,5.3-5.9,8c-0.1,0.1,0,0.2,0,0.4c-0.1,0.1-0.1,0.2-0.2,0.2
		c-0.3,0.3-0.8,0.6-1,1c-1.5,2.3-3.1,4.6-4.6,7c-10.2,16.2-17.4,33.7-22.1,52.2c-1.5,6.1-3.1,12.2-3.8,18.5c-0.1,0.7,0,1.3,0,2
		c0,0.2-0.1,0.4-0.1,0.6c-0.6,0.6-0.6,1.3-0.3,2c0,0.2-0.1,0.4-0.1,0.6c-0.8,2.4-1,4.9-0.9,7.4c0.1,1.6,1.1,2.4,2.9,2.3
		c1.1,0,2.3-0.2,3.4-0.3c15-2,30.1-4,45.1-6c0.5-0.1,0.9-0.3,1.3-0.5c0.2,0,0.4-0.1,0.6-0.1c0.7,0.3,1.4,0.3,2-0.3
		c0.2,0,0.4-0.1,0.6-0.1c0.5,0,1,0.2,1.4,0.1c3.1-0.4,6.1-0.8,9.2-1.2c3.4-0.5,6.8-0.7,10-2c0.4-0.2,1-0.2,1.5-0.1
		c3,0.4,6-0.2,9-0.6c9.1-1.2,18.2-2.4,27.3-3.6c4.4-0.6,8.8-1.2,13.3-1.8c1.3-0.2,2.6-0.5,3.4-1.8c1.1-1.3,0.8-2.5-0.8-3.5
		c0-0.1-0.1-0.2-0.2-0.3c-0.4-1.3-1-2.1-2.1-2.7c0-0.1-0.1-0.2-0.2-0.3c0.1-1-0.5-1.4-1.3-1.6c0-0.1-0.1-0.2-0.2-0.3
		c0.2-0.8-0.3-1.2-1-1.2c0-0.1-0.1-0.2-0.2-0.3c-0.3-1.4-1.2-2.5-2.5-3.2c-0.1-0.1-0.1-0.2-0.2-0.3c0.2-0.8-0.2-1.2-1-1.2
		c0-0.1-0.1-0.2-0.2-0.3c0.1-1-0.5-1.4-1.3-1.6c0-0.1-0.1-0.2-0.2-0.3c0.2-0.8-0.3-1.2-1-1.2c-0.1-0.1-0.1-0.2-0.2-0.3
		c0.2-0.8-0.2-1.2-1-1.2c-0.1-0.1-0.1-0.2-0.2-0.3c0.1-1-0.5-1.4-1.3-1.6c0-0.1-0.1-0.2-0.2-0.3c0.2-0.8-0.3-1.2-1-1.2
		c-0.2-0.2-0.3-0.4-0.5-0.7c0.1-0.6-0.1-0.8-0.7-0.8c-0.1-0.1-0.1-0.2-0.2-0.3c0.1-1-0.5-1.4-1.3-1.6c0-0.1-0.1-0.2-0.1-0.3
		c0.1-0.8-0.3-1.2-1-1.2c-0.1-0.1-0.1-0.2-0.2-0.3c0.1-1-0.5-1.4-1.3-1.6c-0.1-0.1-0.1-0.2-0.2-0.3c0.2-0.8-0.3-1.1-1-1.2
		c0-0.1-0.1-0.2-0.2-0.3c0.1-0.8-0.3-1.2-1-1.2c-0.1-0.1-0.1-0.2-0.2-0.3c0.1-1-0.5-1.4-1.3-1.6c0-0.1-0.1-0.2-0.2-0.3
		c-0.1-0.3,0-0.7-0.2-0.9c-0.8-1-1.6-2.1-2.5-3c-1.4-1.3-2.7-2.7-3.4-4.6c-0.2-0.6-0.5-1.2-1.3-1.2c0-0.1-0.1-0.2-0.1-0.3
		c0.2-0.8-0.2-1.2-1-1.2c-0.1-0.1-0.1-0.2-0.2-0.3c0.1-1-0.5-1.4-1.3-1.6c0-0.1-0.1-0.2-0.2-0.3c-0.4-1.3-1-2.1-2.1-2.7
		c0-0.1-0.1-0.2-0.2-0.3c0.1-1-0.5-1.4-1.3-1.6c0-0.1-0.1-0.2-0.2-0.3c0.2-0.8-0.3-1.2-1-1.2c0-0.1-0.1-0.2-0.2-0.3
		c0.2-0.8-0.2-1.2-1-1.2c-0.1-0.1-0.1-0.2-0.2-0.3c0.2-1-0.5-1.4-1.3-1.6c-0.1-0.1-0.1-0.2-0.2-0.3c0.2-0.8-0.2-1.2-1-1.2
		c0-0.1-0.1-0.2-0.2-0.3c0.1-1-0.5-1.4-1.3-1.6c0-0.1-0.1-0.2-0.1-0.3c0.2-0.8-0.3-1.2-1-1.2c-0.1-0.1-0.1-0.2-0.2-0.3
		c0.2-0.8-0.2-1.2-1-1.2c-0.1-0.1-0.1-0.2-0.2-0.3c0.1-1-0.4-1.5-1.3-1.6c0-0.1-0.1-0.2-0.2-0.3c0.2-0.8-0.3-1.2-1-1.2
		c-0.1-0.1-0.1-0.2-0.2-0.3c0.2-0.8-0.2-1.2-1-1.2c-0.1-0.1-0.1-0.2-0.2-0.3c0.2-1-0.5-1.4-1.3-1.6c0-0.1-0.1-0.2-0.1-0.3
		c0.1-0.8-0.3-1.2-1-1.2c-0.1-0.1-0.1-0.2-0.2-0.3c-0.3-1.4-1.2-2.5-2.5-3.2c0-0.1-0.1-0.2-0.2-0.3c0.2-0.8-0.2-1.2-1-1.2
		c0-0.1-0.1-0.2-0.2-0.3c0.2-0.6-0.1-0.8-0.7-0.8c-0.7-1-1.3-2-2-3c0.3-0.5,0.6-1,0.9-1.5c0.3,0,0.5,0,0.8-0.1
		c0.5,0.4,1,0.7,1.6,1.1c0,1.1,0.7,1.1,1.5,1.1v0.1c0,0.8,0.4,1.2,1.3,1c0.1,0,0.2,0.1,0.2,0.1c0,0.6,0.3,0.8,0.9,0.7
		c0.6,0.4,1.2,0.9,1.7,1.3c0,0.7,0.5,0.8,1.1,0.8c0.1,0.1,0.3,0.2,0.4,0.4c0,0.7,0.5,0.8,1.1,0.8c0.1,0.1,0.3,0.2,0.4,0.4
		c0,0.7,0.5,0.8,1.1,0.8c0.1,0.1,0.3,0.2,0.4,0.4c0,0.7,0.5,0.8,1.1,0.8c0.1,0.1,0.3,0.2,0.4,0.4c0,0.7,0.5,0.8,1.1,0.8
		c0.1,0.1,0.3,0.2,0.4,0.4c0,0.7,0.5,0.8,1.1,0.8c0.1,0.1,0.3,0.2,0.4,0.4c0,0.7,0.5,0.8,1.1,0.8c0.1,0.1,0.3,0.2,0.4,0.4
		c0,0.7,0.5,0.8,1.1,0.8c0.1,0.1,0.3,0.2,0.4,0.4c0,0.7,0.5,0.8,1.1,0.8c0.1,0.1,0.3,0.2,0.4,0.4c0,0.7,0.5,0.8,1.1,0.8
		c0.1,0.1,0.3,0.2,0.4,0.4c0,0.7,0.5,0.8,1.1,0.8c0.1,0.1,0.3,0.2,0.4,0.4c0,0.7,0.5,0.8,1.1,0.8c0.1,0.1,0.3,0.2,0.4,0.4
		c0,0.7,0.5,0.8,1.1,0.8c0.1,0.1,0.3,0.2,0.4,0.4c0,0.7,0.5,0.8,1.1,0.8c0.1,0.1,0.3,0.2,0.4,0.4c0,0.7,0.5,0.8,1.1,0.8
		c0.1,0.1,0.3,0.2,0.4,0.4c0,0.7,0.5,0.8,1.1,0.8c0.1,0.1,0.3,0.2,0.4,0.4c0,0.7,0.5,0.8,1.1,0.8c0.1,0.1,0.3,0.2,0.4,0.4
		c0,0.7,0.5,0.8,1.1,0.8c0.1,0.1,0.3,0.2,0.4,0.4c0.1,0.5,0.3,0.8,0.9,0.6c0.5,0.3,0.9,0.6,1.4,0.9c0,0.5,0.3,0.8,0.8,0.6
		c0.1,0.1,0.2,0.1,0.3,0.1c0.1,0.2,0.2,0.5,0.3,0.6c1.7,0.8,3.2,1.8,4.6,3.1c0.1,0.1,0.2,0,0.4,0c0.4,0.4,0.8,0.7,1.1,1.1
		c0,0.7,0.5,0.8,1.1,0.8c0.1-0.1,0.3-0.2,0.4-0.3c0.1,0,0.1,0.1,0.2,0.1c0,0.2,0.1,0.4,0.1,0.6c0,1,0.7,1,1.4,1.1
		c0.2,0.8,0.8,1.1,1.5,1.1C904.5,866.5,904.9,867,905.7,866.9z M935.8,999.8c-0.2,0.3-0.3,0.7-0.5,1c-0.1,0-0.2,0.1-0.3,0.2
		c-0.3,0-0.7,0-1,0.1c-0.3,0-0.6-0.1-0.8,0c-1.7,1.3-3.4,2.6-5.1,3.9c-6.6,5.1-13.1,10.1-19.7,15.2c-3,2.3-5.9,4.7-8.8,7.1
		c-1.4,1.2-2.6,2.5-4.4,3.2c-0.7,0.3-1.4,0.8-2.1,1.3c-5.4,4.1-10.7,8.3-16.1,12.4c-4.2,3.2-8.3,6.5-12.5,9.7
		c-2.4,1.8-4.8,3.6-7.3,5.4c-0.6,0.4-1.1,1-2.1,0.5c0.4-1.5,1.3-2.7,2.2-3.9c8.5-11.3,17-22.6,25.4-33.9c2-2.7,3.9-5.3,5.9-8
		c8.7-11.2,17.1-22.7,25.6-34c0.7-1,1.2-1.9,1-3.1c-0.1-0.3-0.5-0.5-0.7-0.7c-1-1.2-2.4-1.6-3.8-1.8c-4.3-0.5-8.6-1.1-12.9-1.6
		c-7-0.8-14-1.7-21-2.5c-3.9-0.5-7.7-1.1-11.6-1.3c-3-0.2-6,0.1-8.9-1.1c-0.2-0.1-0.5-0.1-0.7-0.1c-4.1-0.5-8.1-1-12.2-1.5
		c-1.2-0.1-2.5-0.1-3.7-0.1c-0.2,0-0.4,0-0.7-0.1c-0.4-0.2-0.7-0.4-1.1-0.5c-8.7-1.1-17.5-2.1-26.2-3.1c-7.7-0.9-15.5-1.8-23.2-2.8
		c-4.2-0.5-5.5,0.7-4.9,4.8c0.4,3.1,0.9,6.2,1.4,9.3c0.1,0.4,0.3,0.8,0.5,1.1c0,0.2,0.1,0.4,0.1,0.7c-0.1,0.4-0.2,0.7-0.1,1.1
		c0.3,1.7,0.5,3.5,0.9,5.2c2.2,9.7,4.9,19.2,8.4,28.6c3.6,9.7,8,19,13.2,27.9c0.3,0.5,0.7,0.8,1.1,1.2c0.1,0.2,0.2,0.3,0.3,0.5
		c0.1,0.4,0.1,0.9,0.3,1.2c2.3,3.5,4.5,7,6.8,10.4c5.4,7.8,11.4,15,18,21.9c4.7,4.9,9.6,9.4,14.8,13.8c10.3,8.7,21.4,16.2,33.3,22.5
		c16,8.4,33,14.1,50.6,17.7c5.7,1.2,11.4,1.8,17.2,2.6c1.1,0.2,2.1,0.3,3.2,0.3c2.1,0,3.1-1,3.1-3.1c0-0.9-0.1-1.8-0.2-2.6
		c-0.3-2.3-0.6-4.6-0.9-6.9c-0.7-5.4-1.4-10.9-2.1-16.3c-0.8-6.1-1.7-12.2-2.5-18.3c-1.1-8-1.9-16.1-3.2-24.1
		c-0.6-3.7-1.2-7.4-1.5-11.1c-0.5-6-1.5-11.9-2.2-17.8c-1-7.4-2-14.7-2.9-22.1c-0.3-1.9-0.5-3.9-0.9-5.8c-0.1-0.6,0.1-1.6-1-1.7
		h-0.1c0.3-0.9-0.4-1.1-0.9-1.3c-0.5-0.1-1-0.2-1.5-0.3C935.9,998.7,936,999.4,935.8,999.8z M1109.3,1068.9c0.1,0,0.3,0,0.4-0.1
		c1.5-1.7,3-3.4,4.4-5.1c0.1-0.1,0.1-0.4,0.1-0.5l0,0c0.5-0.4,1-0.7,1.4-1.1c10.4-12.9,19-26.8,25.7-42c5.6-12.9,9.7-26.2,12.5-40
		c1-4.9,1.6-9.9,2.3-14.9c0.2-1.6,0.4-3.3,0.4-4.9c0-2.3-0.8-3.1-3-3.1c-0.6,0-1.3,0-1.9,0.1c-3.2,0.4-6.5,0.8-9.7,1.3
		c-4.2,0.6-8.4,1.1-12.5,1.7c-5.4,0.7-10.7,1.4-16.1,2.1c-4.2,0.6-8.4,1.1-12.5,1.7c-5.3,0.7-10.7,1.1-15.9,2.1
		c-3.6,0.7-7.1,1.2-10.8,1.5c-6.1,0.4-12.1,1.5-18.2,2.3c-7.3,1-14.6,1.9-21.9,2.9c-2.2,0.3-4.4,0.5-6.5,1.1
		c-2.4,0.7-3.8,2.3-1.8,4.9c1.6,2.1,3.1,4.1,4.7,6.2c5.8,7.5,11.6,15.1,17.4,22.5c2,2.6,4.1,5.1,6.3,7.5c1.1,1.2,2.1,2.3,2.8,3.8
		c0.4,0.9,1,1.7,1.6,2.5c2.4,3.2,4.9,6.4,7.4,9.5c3.7,4.7,7.3,9.4,10.9,14.2c2.9,3.8,5.7,7.6,8.6,11.5c0.4,0.5,0.6,1.1,1.1,2
		c-0.8-0.1-1.2,0-1.5-0.2c-0.9-0.5-1.8-0.9-2.6-1.5c-9.6-7.2-19.2-14.4-28.9-21.6c-2.3-1.7-4.6-3.6-7-5.1c-1.8-1.1-3.8-1.9-5-3.8
		c-0.2-0.3-0.6-0.5-0.9-0.7c-10-7.5-19.9-15-29.9-22.5c-1.8-1.4-3.6-2.7-5.5-4c-2.1-1.4-3.9-0.8-4.6,1.7c-0.3,1-0.5,2.1-0.6,3.1
		c-0.8,6.1-1.5,12.2-2.2,18.4c-1,8.4-2.2,16.7-2.9,25.1c-0.3,3.6-0.5,7.2-1.2,10.8c-0.9,4.9-1.3,10-1.9,15c-0.1,0.7,0.1,1.3,0.1,2
		c0,0.2,0,0.5-0.1,0.7c-0.2,0.4-0.5,0.8-0.5,1.3c-0.2,1.6-0.3,3.3-0.5,4.9c-0.7,6-1.4,12-2.2,18c-0.6,4.7-1.2,9.4-1.7,14.1
		c-0.5,4.2-1.1,8.4-1.5,12.6c-0.2,1.9,0.6,3.9,3.4,3.7c0.5,0,1,0,1.5-0.1c5.3-0.8,10.6-1.3,15.9-2.4c8.2-1.7,16.3-3.7,24.2-6.5
		c9.9-3.5,19.7-7.4,28.9-12.5c10.1-5.5,19.7-12,28.7-19.2c0.4-0.3,0.6-0.8,0.9-1.1l0,0c0.5-0.2,1-0.4,1.4-0.8
		c6.4-5.3,12.3-11.3,18.1-17.3C1108.8,1070.1,1109,1069.5,1109.3,1068.9L1109.3,1068.9z M1082.6,828.5c0.9,0,1.3,0.4,1.3,1.3
		c-0.8,1.2-1.5,2.5-2.3,3.6c-2.3,3-4.7,6-7,9c-5.2,6.9-10.4,13.8-15.5,20.7c-1.7,2.3-3.7,4.4-4.5,7.3c-0.2,0.6-0.9,1.1-1.5,1.6
		c-0.7,0.6-1.5,1.1-2.1,1.8c-1.7,2.2-3.3,4.4-4.9,6.6c-4.7,6.2-9.4,12.5-14.1,18.7c-2.3,3.1-4.8,6.1-6.9,9.3c-1.3,2-0.8,4.3,1.6,5
		c1.7,0.5,3.4,0.7,5.1,0.9c1.5,0.2,3.1,0.2,4.6,0.4c1.2,0.1,2.3,0.3,3.5,0.4c1.7,0.2,3.3,0.5,5,0.7c1.5,0.2,3,0.3,4.4,0.4
		c1.8,0.2,3.7,0.5,5.5,0.7c1.5,0.2,3,0.3,4.4,0.5s2.8,0.5,4.2,0.7c1.1,0.2,2.2,0.3,3.3,0.4c1.5,0.1,3.1,0,4.6,0.4
		c2.1,0.5,4.2,0.2,6.3,0.2c0.8,0,1.7,0.2,2.6,0.3c1.9,0.4,3.8,1,5.8,1.3c1.5,0.3,3.1,0.2,4.6,0.4c2.6,0.3,5.3,0.8,7.9,1.1
		s5.2,0.5,7.8,0.7c1.2,0.1,2.5,0.3,3.7,0.5c1.7,0.2,3.3,0.5,5,0.7c1.5,0.2,3,0.3,4.4,0.4c1.7,0.2,3.3,0.5,5,0.7
		c1.5,0.2,3.1,0.2,4.6,0.4c1.8,0.2,3.6,0.5,5.3,0.7c1.4,0.2,2.8,0.3,4.3,0.5c1.7,0.2,3.3,0.5,5,0.7c1.5,0.2,3,0.3,4.5,0.4
		c1.8,0.1,3.6,0.3,5.4,0.4c1,0,1.9-0.4,2.3-1.4c0.6-1.6,0.7-3.1-0.2-4.7c0-0.2,0-0.4-0.1-0.6c0.3-1.5,0-3-0.7-4.3
		c0-0.2,0-0.4-0.1-0.6c0.3-0.8,0.4-1.5-0.3-2.1c0-0.4-0.1-0.7-0.1-1.1c0.4-0.6,0.4-1.1-0.3-1.6c0-0.4-0.1-0.7-0.1-1.1
		c0.4-0.5,0.3-0.9-0.2-1.2c-0.1-0.4-0.1-0.7-0.1-1.1c-0.1-1-0.1-1.9-0.3-2.9c-2.1-8.6-4.3-17.1-7.3-25.5
		c-3.1-8.5-6.7-16.8-10.9-24.8c-0.3-0.5-0.7-0.9-1.1-1.4c-0.5-0.9-1-1.8-1.5-2.8c-0.3-0.8-0.5-1.7-0.9-2.4c-3-4.7-6-9.5-9.2-14
		c-6.9-9.9-14.9-18.8-23.6-27.2c-0.4-0.4-0.9-0.5-1.4-0.8c-3-2.6-5.9-5.2-8.9-7.8c-0.5-0.6-1-1.3-1.6-1.8c-1.2-1-2.4-1.9-3.6-2.8
		c-10.6-7.9-21.8-14.8-33.7-20.4c-8.7-4.1-17.7-7.2-26.9-10c-8.4-2.5-16.9-4.5-25.6-5.6c-1.5-0.2-2.9-0.2-4.4-0.3
		c-0.2,0-0.5,0-0.7-0.1c-0.2-0.1-0.3-0.4-0.5-0.4c-1.7-0.2-3.4-0.4-5.1-0.5c-2.8-0.2-3.7,1.8-3.4,3.8c0.5,4.1,1,8.1,1.6,12.2
		c0.7,5.3,1.4,10.6,2.1,15.9c0.8,6.3,1.7,12.6,2.5,18.9c0.7,5.2,1.3,10.4,2.1,15.5c0.4,3.2,0.6,6.4,1.8,9.4c0.3,0.9,0.2,2,0.2,3
		c0,0.8-0.1,1.6,0,2.5c0.9,6.8,1.7,13.6,2.6,20.4c1.1,8.2,2.2,16.5,3.3,24.7c0.2,1.2,0.4,2.5,0.9,3.7c0.9,2.1,2.4,2.5,4.2,1.2
		c2.1-1.5,4.1-3.1,6.2-4.7c7.1-5.4,14.2-10.9,21.2-16.4c3.5-2.7,7.2-5.1,10.1-8.5c0.3-0.3,0.7-0.5,1.1-0.8c1.9-1.3,4-2.5,5.8-3.9
		c9.9-7.6,19.8-15.3,29.8-22.9C1079.7,830.5,1081.2,829.6,1082.6,828.5z M1141,932.9c-0.2,0-0.4,0-0.7,0c-0.6-0.2-1.1-0.4-1.7-0.5
		c-3-0.3-6-0.5-9-0.7c-3.6-0.3-7.2-0.6-10.9-0.8c-0.5,0-1.1,0.1-1.6,0.2c-0.3,0-0.7-0.1-1-0.1c-1.2-0.7-2.5-0.7-3.9-0.3
		c-0.2,0-0.4,0-0.7,0c-0.3-0.1-0.5-0.4-0.8-0.4c-3.9-0.3-7.8-0.6-11.7-0.9c-0.4,0-0.8,0.1-1.2,0.2c-0.3,0-0.7,0-1,0
		c-1.2-0.7-2.5-0.6-3.9-0.3c-0.2,0-0.4,0-0.7-0.1c-0.4-0.2-0.9-0.4-1.3-0.5c-4.8-0.4-9.6-0.8-14.4-1.1c-0.6,0-1.2,0.1-1.8,0.2
		c-0.7,0-1.4-0.1-2.2-0.1c-0.3-0.1-0.6-0.4-1-0.4c-1.7-0.2-3.5-0.3-5.3-0.4c-0.5,0-1,0.1-1.4,0.2c-0.5,0-0.9-0.1-1.4-0.1
		c-0.5-0.1-0.9-0.4-1.4-0.4c-1.3-0.1-2.5-0.1-3.8-0.2c-7-0.6-14-1.1-21.1-1.7c-6.1-0.5-12.3-1-18.4-1.5c-1-0.1-2.1,0-3.1,0.1
		c-0.2,0-0.4,0-0.7,0c-0.1-0.1-0.3-0.3-0.4-0.3c-1.9-0.1-3.9-0.3-5.8-0.1c-1.4,0.1-2.8,0.5-3.4,2.1c-0.5,0.5-1,1-1.5,1.5
		c-1.5,0.7-1.7,2.1-1.4,3.5c0.4,1.7,0.9,3.4,1.5,5.1c1,3,2,3.8,5.2,3.8c0.6,0,1.1,0,1.7,0c4.2-0.1,8.3-0.2,12.5-0.2
		c23.6-0.1,47.1-0.2,70.7-0.4c20.1-0.1,40.2-0.3,60.3-0.5c4.8,0,9.6-0.3,14.4-0.5c1.3-0.1,2.5-0.3,3.8-0.5c0-0.2,0-0.3,0-0.5
		c-0.6-0.2-1.2-0.4-1.9-0.5c-3.2-0.4-6.4-0.9-9.5-1.2c-5.8-0.6-11.5-1-17.3-1.5C1142.9,932.7,1141.9,932.9,1141,932.9z M772.2,952.3
		c1.8,0.3,3.6,0.8,5.3,1c8,0.8,16.1,1.6,24.1,2.2c10.4,0.9,20.7,1.6,31.1,2.4c13.5,1.1,27,2.2,40.5,3.2c16,1.3,31.9,2.5,47.9,3.8
		c2.4,0.2,4.9,0.3,7.4,0.5c1.4,0.1,2.7-0.2,3.8-1c1.2-0.9,2.3-1.9,3.4-3c1.1-1.1,1.4-2.4,1-3.8c-0.4-1.5-0.9-2.9-1.3-4.3
		c-0.7-2.2-2.1-3.2-4.3-3.2c-1.9,0-3.8,0-5.7,0c-33.3,0.2-66.6,0.4-99.9,0.6c-14.3,0.1-28.6,0.3-42.9,0.5
		C779.1,951.2,775.7,951.3,772.2,952.3z M962.2,746.3c-0.2,0-0.4,0-0.6,0c-0.4,2.7-1,5.4-1.2,8.1c-0.9,9.5-1.7,19-2.4,28.4
		c-1.8,21.9-3.5,43.7-5.2,65.6c-1.2,15.8-2.5,31.5-3.7,47.3c-0.1,1.9-0.3,3.8-0.4,5.7c-0.1,1.4,0.2,2.7,1,3.8c1.1,1.5,2.3,3,3.6,4.4
		c1,1.1,2.4,1.4,3.8,1.1c1.2-0.3,2.4-0.7,3.6-1c2.2-0.6,3.2-2.1,3.2-4.3c0-1.9,0-3.8,0-5.7c-0.2-32.5-0.4-64.9-0.6-97.4
		c-0.1-14.9-0.3-29.7-0.5-44.6C962.8,753.8,962.4,750.1,962.2,746.3z M978.3,1140.3c0.1,0,0.2,0,0.3,0c0.1-0.5,0.3-1.1,0.4-1.6
		c0.5-3.4,1.1-6.9,1.4-10.3c1-11.8,2-23.6,2.9-35.4c1.8-22.9,3.6-45.8,5.4-68.6c0.9-11.5,1.8-23,2.7-34.5c0.2-2.3,0.4-4.6,0.6-7
		c0.1-2.5-1-4.4-2.9-5.9c-1-0.8-2.1-1.1-3.4-0.7c-2.3,0.8-4.5,1.6-6.7,2.5c-1.4,0.5-2.2,1.6-2.3,3.2c-0.1,1.1-0.1,2.3-0.1,3.4
		c0.3,39.3,0.5,78.5,0.8,117.8c0.1,10.8,0.4,21.7,0.7,32.5C977.9,1137.2,978.2,1138.8,978.3,1140.3z M999.4,947.3
		c-0.1-2.3-0.2-4.5-0.4-6.8c-0.6-4.9-2.4-9.2-5.4-13.1c-1.9-2.5-4.2-4.6-6.7-6.7c-4.7-4-10.1-6.2-16.2-6.5
		c-10.7-0.6-19.2,3.8-25.4,12.3c-8,11-7.6,25.8,1.1,36.4c7.9,9.6,18.3,12.7,30.3,10.5c5.8-1.1,10.5-4.3,14.6-8.3
		C996.4,960.3,999.4,954.5,999.4,947.3z"/>
	<rect x="901.8" y="546.6" class="st6" width="127.3" height="154.7"/>
	<text transform="matrix(1.0316 0 0 1 917.353 653.6904)" class="st7 st8 st9">N</text>
</g>
</svg>
